<svg fill="#7c7c7c" stroke="black" stroke-linecap="round" stroke-linejoin="round" stroke-width="2" baseprofile="tiny" version="1.2" viewBox="0 0 1000 813" viewbox="0 0 1000 813" xmlns="http://www.w3.org/2000/svg" xmlns:xlink="http://www.w3.org/1999/xlink">
	<path d="m922.5 251.5-4.9 0.3-12.1 2.6-2.7-0.3-2.7-1-0.9-0.8-1.2-0.2-2.8 0.4-0.7 4.8v5.8l-1.1 5.9-4.6 11.4-2.9 11.3-4.2 2.3-5.7-1.2-4.9-3.2-4.6-4.1-5.6-2.5-7.2-1-6.8 1.6-4.5 5.3-4.9 4.4-3.1 0.2-2.1 1.6-1.5 3-2.3 2.6-6 2.7-6.7 0.7-6 1.3-4.8 4.1-8.6 11.2-10.6 7.5-13.4-0.7-5.9-3.8-5.6-9.1-3.1-2-3.6-1.4-3.1-2.2-2.6-3.2-1.8-3.7 0.2-3.7 6.2-10.1-1.1-7.3 3.3-0.9 2.5-2.1 2-2.5 0.9-3-0.6-7.1 1.2-6.8 4.7-5.2 19.6-6.9 5.2-3.9 2.5-5.8-0.4-7.2 0.4-7.2 1.8-2.7 2.3-2.4 3.4-6.2 8.4-10.5-0.4-3.1-1.5-3-2.4-2.8-3.4-1.1-2.8 0.4-2.2-0.7 0.5-3.4 5-9.9 0.4-3.8-2-8.5 3.9-28.6-1.7-12.8 9.1-8.7 3.7-5.1 2.1-5.2-0.7-5.3-4.5-3.3-3.7-4.1-1.5-5.5 2-16.5 2.3 0.1 1.9 0.3 1.6 0.6 1.3 0.3 1.2-0.6 0.4-1 0.7-4.6 0.4-0.3 2.5-0.5 1.1-1.7 0.5-1.9-1.3-0.5 0.6-1.2 1-1.6 0.3-1.4 3-2.9h1.3l1.2-1 0.2-1.9 2.4 2 1.3 0.3 0.7-0.5 0.6-1.9 1-0.5 1.9-0.4 1.3-1.1 2.2-2.6 0.9-1.8 1.1 1.3 1.2-0.1-0.9-2 0.2-0.3 1.7-0.7 1.1-0.2-0.1-0.9 2.3-2.6 1.1-0.9-1-1.2-1.3-0.5v-0.7l2.3 0.9 0.8-0.1 0.3-1.4 2.4 0.5 2.3-0.4 7.4-3.8 2.2-0.8 2.3-0.1-0.5 1.3 0.9 0.4 1.6-0.1 1.4-0.5 0.6 0.6 0.6-1.4 0.5-0.3 0.8 0.1 0.2 0.7-0.5 1.5 2.2-1 2.3-0.4 2-0.7 1.5-2-1.2-0.2-0.2-0.4 0.8-1.2 1.5-0.2 0.2-0.7-0.5-1.1 0.5-1.2 0.5-0.7 3.4-3.2 1.2-0.9v-1.4l0.7-0.7 2.5-0.4 20.6 0.9 19 26.8 19.1 26.8 9.3 45.4 0.1 6.6 0.6 1.8v1.7l-0.5 2.6v1l0.8 1.3 1.1 0.6 1.3 0.3 17.1 0.5 5.3 1.4 2.3 1.2 0.2 0.8-0.4 1.3 0.2 0.8 0.6 0.6 2.4 1.8 0.9 0.4v0.7l-1.1 0.5 1.6 1.2 1.7 0.9 1.3 1.1 0.6 1.8 0.4 0.4 3-1.3 1 0.5 0.5 1.8-1.6 1.6-1.1 2-1.5 6.1 0.2 0.9-1.5 1 0.2 1.7 1.6 3.6 0.1 1.6-0.3 2.8-0.9 2.7-1.8 8.7-0.6 1.4-3.1 4.1-0.4 0.7 0.2 0.7 0.7 1.1 1.8 0.1 0.6 0.4 1.1 1.7 1.3 1.4 1 1.4 0.4 1.7 0.1 2.2-0.3 1.7-0.7 2.1-0.8 2.1-1 1.5-1.5 0.8-4.3 1.6-1.7 1-3.1 2.8-1.7 1-4.9 1.6-1.6 0.9-7.4 6.9-0.7 0.2-2.2 0.3-1 0.4-2.3 2.4-1.5 1.1-1.8 1-1.8 0.4-1.7-0.2-5.9-2.5-3.2-1h-2.6l-3.2 2.6-3.1 3.2-2.8 3.5-2 3.6-1.4 3.4-1 1.3-3.2 1.8-1.3 1.2-0.9 1.5-0.4 1.7 0.6 3.2z" name="Borno"/>
	<path d="m405.4 669.8 0.1 4.9-0.7 5.4 4.9 2.5 12.1 0.1 4.5 2.1 0.6 2.9 1.4 2.6 2.7 2.1 3 1.1 1.4 3.8-0.7 4.7 1.9 8.8 4 7.7-1 2.9-4-0.7-4.3-3.4-4.7-2.6-2.8-4.4-4.1-2.9-3.2-0.5-2.2 1.6 0.5 5.7-2 4.6-0.1 1.1 2 0.6 0.9 1.6-0.5 1.6-2.4 1.6-4.3-0.6-3.7 1-0.1 1.7 0.8 1.5 0.2 1.6-1.2 5.3-0.3 3.6 0.5 3.9-0.5 3.7-2.7 2.7-1.9 3 1.1 4.1-0.5 1.5-0.2 1.4 1.8 3.3 0.6 3.5-5.6-3.8-4.4-0.1-3.1-1.3-3.3 0.1-6.8 1.4-3.4-1-1.1-6.5 8.6-13.2 0.4-4.1-1.7-3.1 6.1-17.6 3.2-3.5 1-2.1 0.7-2.2 1.2-1.7 0.6-2v-2.3l-0.4-2.3v-2.3l-0.6-2.1-0.9-1.6 0.7-1.2 0.9-3.8-1.1-9.4-3.2-2.9-2.3-0.5-4.2-2.1-1.8-1.6 3.9-4.9 5.6-3 0.7 0.7 4-0.6 4-0.2z" name="Abia"/>
	<path d="m435.6 720.7-2.3 2.6 1.4 3.6 0.9 1.5 1.7 1.3 4.9-0.8 2.1 0.5 3.7 2.4 1.4 1.6-0.6 10.2 1.1 4.6 2.3 4.2 3 4.2 9.7 10.2 3.2 2.4 1 0.2 0.5 0.4 1.2 3.6 1 1.4-0.9 2.4-0.1 0.8 0.3 1.1 1.8 0.8 0.7 0.6 0.3 2-1.3 1.2-1.7 0.9-0.7 1.4-1.2 2.5-1.6 0.6h-3.6l-4.7-0.6h-7.2l-3.4-0.5-1.6 0.1-2.8 1.4-1.6 0.2h-3.7l-14.2 1.7-0.8-0.5-1-0.1-1 0.3-0.6 0.9h1.6l1.2 0.6-1.8 0.4-2.7 0.2-2.4-0.4-1.1-1.1-1.2-0.3-7.3-0.5 0.6-0.9-0.6-0.6-1.6 0.1-0.2-1 0.3-0.5 1.1-0.8 0.4-0.9-1.8-2.3 0.6-1.2-1.2-1.4 0.3-2.1 1.5-3.9h-0.6l-0.9 0.6 0.1-2-0.7-3.1-1.5-2.3-1-2.1-0.6-3.5-1.8-3.3 0.2-1.4 0.5-1.5-1.1-4.1 1.9-3 2.7-2.7 0.5-3.7-0.5-3.9 0.3-3.6 1.2-5.3-0.2-1.6-0.8-1.5 0.1-1.7 3.7-1 4.3 0.6 2.4-1.6 0.5-1.6-0.9-1.6-2-0.6 0.1-1.1 2-4.6-0.5-5.7 2.2-1.6 3.2 0.5 4.1 2.9 2.8 4.4 4.7 2.6z" name="Akwa Ibom"/>
	<path d="m381.9 734.9-2.4 0.7-2.7 0.4-4.4-1.3-10.4 1-11.8-0.8-8.7-5.7-0.6-1.1-2-1.5-0.8-0.9-0.1-2.9 1.2-2.7 0.7-5.9-3.4-3.6-3.1 0.7-2.9-0.2-0.6-1.9 2.6-13.1 1-2.9 5.5-4.5 6.5-1.8 3.6 1.5 3.3-0.9 3.2-6.7 1.1-3.6 3.2-1.9 3.7-0.9 3.8-0.4 7.6 1.6 3.4-1.1 3.4-0.8 1.8 1.6 4.2 2.1 2.3 0.5 3.2 2.9 1.1 9.4-0.9 3.8-0.7 1.2 0.9 1.6 0.6 2.1v2.3l0.4 2.3v2.3l-0.6 2-1.2 1.7-0.7 2.2-1 2.1-3.2 3.5z" name="Imo"/>
	<path d="m398.6 795 1.5 0.4 1.5-0.2 3-0.8 4.2-0.4 0.8 0.3-0.4 1.1-0.8 1-1.4 0.3-3.2-0.1-1.3 0.2-4.1 1.5-1.5 0.1-6.1-0.4-1.3-0.6-0.5-1.1 0.8-1.5 0.9-0.4 4-1.3 1 0.4zm-16.1-1.8 1.3 0.5 3.8-0.4 1.1 0.4-1 0.9-0.5 1-0.2 2.4-0.4 1.3-0.8 0.8-2.3 1.2-7.4 1.5-2.8-0.2-0.8-1 0.8-1.6 2.7-2.8 1.8-2.9 1.6-1.9 0.7-2.2 1.2 0.7zm-0.6-58.3 1.7 3.1-0.4 4.1-8.6 13.2 1.1 6.5 3.4 1 6.8-1.4 3.3-0.1 3.1 1.3 4.4 0.1 5.6 3.8 1 2.1 1.5 2.3 0.7 3.1-0.1 2-1.1 1.1-0.2 0.9 0.4 2.1v0.8l-0.7 1v0.6l1.1 1.3 0.3 0.7-1.7 1.8-1.7 1.1-0.9 0.1-0.8-0.7h-0.6l-0.7 1.7-1.8-0.2-2.9-1.5-2.1-0.1-2.1-0.4-1.9-0.9-1-1.4-1.1 0.5h-1.5l-0.7 1.5-0.7 0.3v0.5l1.1 0.6-0.5 0.6 1 0.3 1.5 1.2 2.2 0.5 0.4 0.5-0.6 1.5-3.7 0.6-2.3-3.2-5.2-5.7-0.8-1.8v-2.2l-0.2-0.8h-0.5l-1.2 0.5-1.8 0.1-2.5-2.1-0.6-0.9-1.4-3.8-1-0.5-1.1 1.5 0.2 0.8 1 0.3 0.6 0.6 0.8 2.8 0.8 1.3 1.5 0.5 2.6 1.3 1.8 2.8 0.3 2.8-2.1 1.1 1.1 0.7 1.2 1.2 0.8 1.5-0.6 1.5-2.2 2.5-1.5 0.7-1.7-0.7v1.7l-1.5-0.7-1.2-1-0.5-1.2 0.4-1.6-1.1 1-0.3 1.4 0.5 1.4 0.9 1.3-2.3 0.6h-0.6l-1-2-0.5-2.1-0.2-4.2-1.4-2.3-0.4-1.4 0.9-0.6 0.8-2.3 0.3-1.7-0.2-1.2 1.7 0.6-0.6-1-1.6-1.8-0.8-2.8-0.4-0.7-1.5 2.1h-0.6l-0.3-1.3-1-1.9-0.4 1.3 0.2 2-0.4 0.6 1 1.4 1.8 5-1.4-0.1-0.8-1.1-1.1 0.6-0.8-1.6-0.8-1.4-2.4-2.8 0.1 1.4 0.4 1.1 1.2 2.1 1 1.4-0.2 1.4-0.8 0.9 0.6 0.9 0.8-1.3 1.6-0.4 1.4 0.4 0.7 1.1-0.8 5.7 0.2 2 2.9 5.8 1.1 1.4-0.6 1.6-0.8 0.3-1.1-0.1-2.5-1.1 0.5 1.2-1.8-0.5-1.9-0.9-1.8-0.4-2 0.7-0.9-1-0.7-1.3-0.1-1.5 0.6-1.4-1.4-0.8-1.3-2.1-0.9-2.7-0.4-2.1 0.2-1.5 0.4-0.8 1.2-1.4 0.7-2.2-0.2-1.3-1.4-0.5-2.1-1.2-1.5-2.8-1.3-5.2-0.2-2 0.2-1.1 1.5-2.2-0.2-0.7-0.8-0.1-1 1-0.8-1-0.4-1.4-1.4 0.5-1.4-0.5 0.3 1.5 0.2 1.5 0.4 1.2 1.1 0.5 0.7 0.6 0.6 1.5 0.7 3 0.3 3.1 0.4 1.5 1.8 1.1 1.1 1.3 1.5 2.7-1.9 1.6-0.4 0.7-0.1 1.2 1.6 8.2 0.9 2.5 1.1 1.3-0.2 1.9 1.7 1.5 1.1 1.2-2.1 1.1-2.6 0.5-3.3 0.2-3.1-0.3-1.8-1-0.3-1.2 0.3-4.9 0.5-1-1.1-1.4v-2.9l0.3-1.4 1.9-5 0.2-0.9-0.1-2.4-1.1 1.3-1-1.3-2.7-1.2-2.3-1.8-1.3-2.8-0.7-3-5.1-3.2-6.9 2.6-2.6 0.2-0.9-2.5 0.4-1.6-0.7-1-1.2-0.1-1.2-0.6-1.9-2.5 0.1-3.4 0.9-2.9 1.7-2.5 0.2-1.2 0.8-1.8 1.5-1.6-1.1-1.6-0.6-1.9v-1.7l0.4-2.1 0.5-1.7 0.5-0.8 1.5-0.7 0.7-1.8 0.4-3.8 1.2-2.7 1.8-1.7 2-1.5 2.8-3.5 1.1-2.3 1.6-0.3 1.3-1.3 0.2-1-0.4-0.8-2.4-2.8-7.7-0.7-1.5-3.7 1.7-1.8 2-0.9 1.6-1.7 1-2 0.7-4.1 1.7-3.8 2.1-9.7 2.5 2.3 2.8 0.2-1 2.9-2.6 13.1 0.6 1.9 2.9 0.2 3.1-0.7 3.4 3.6-0.7 5.9-1.2 2.7 0.1 2.9 0.8 0.9 2 1.5 0.6 1.1 8.7 5.7 11.8 0.8 10.4-1 4.4 1.3 2.7-0.4z" name="Rivers"/>
	<path d="m338 785.3-0.5 0.6-1.3 3.5-0.5 3.8 0.5 2.8-0.3 0.7-0.2 2.7-0.8-1.9-0.3-1.1-0.2-5.1-0.4-1.1-0.7 1.1-1.1 0.7 0.5 1.2 0.1 3.9 0.3 1.3 1 1.8 0.7 1.7 0.8 2.8 0.1 1-0.7 0.9-0.8 0.3h-2.6l-2.3 0.2-0.5-0.5-0.9-2.7-0.2-2.6 0.1-3.8-0.4-3-1.2-2.2-2.6 0.3 2.4 1.8 0.8 2.9-0.3 3.4-1.1 3.3-0.2 2.8-4.1 0.9-4.8-0.4-2.3-1.6-2.2 0.6 0.6 1.5-1.4 0.5-2.1 0.2-1.5 0.4-1.6 0.7-3.8 0.1-1.7 0.6-1.9-2.3 1.7-3.6 5.4-6.1-2.3-0.3-0.6 0.3-2.9 3.4-0.4-4.5-1.3-4.1h-0.5l-0.1 1.7 0.2 2.1 0.3 2.1-0.8-0.2-1-0.8-1.5-0.3 0.9 1.9 0.9 1.3 0.6 1.4-0.1 2.2-0.6 1.7-0.6 1.2-1.7 1.1 0.1 1.2 1.1-0.4 1.2 0.4-0.5 0.8-2.4 0.8-3 0.1-2.1-0.5-1.2 1.1-1.3-0.5-0.8-0.8-0.2-1.2v-1.5l0.4-1.4 1.1-2 0.2-1.2-1.7 0.6v-1.3l0.3-2.3-1.7-0.3-1-0.4-1.1 0.3-0.2 0.8 0.2 1.3 0.7 1.9-0.4 1.1 1.1 1.9 0.4 1.3-0.2 1.8-0.7-0.1-0.9-0.9-1.3-0.5-1.8-0.1-0.7-0.4-0.1-3 0.6-0.4-1.2-1.9v-2.8h-0.5l-0.6 2.8-1.7-1.1 1.2 2.8 0.3 1.4-1 1-1.2-0.2-1.3-0.8-1.7-1.4-1.7-0.6-1.9-1.5-1-2 0.9-2.1-0.9-0.1-0.9 0.9-0.4 0.9-1.4-1.4-3.4-1.9-0.4-1 1.7 0.9-0.6-1.1-1-0.5-2.4-0.7-1.7-2-0.7-0.8-2.2-2.3-0.5-0.4-7.8-7.2-2.3-3.3-0.8-3.5 1.2 0.6v-1.6l-3.6-2.2-1-1.7-0.4-1.3-2.1-3.6 1.9 0.7-0.7-2-2.6-3-2.3-6.5-0.8-3.9-0.4-1.3-1.1-2.2-0.4-1.2-0.5-2.1-1.1-1.5-0.3-1.3 0.4-1 1-0.4 1.3 0.1 1.3 0.4 0.9 0.8 1.5 2.1 1 0.6-1.3-3.3 2.3 1.9 3.2 2.1 3.8 1.3 4.2 2.3 1.6 1.2 2 0.3 1.5-0.2 1.3 0.1 3-1.6 2.8-2 1.6-0.5 1.5-0.7 1.6-0.5 1.5 0.3 2.6-0.5 2.3-1.2 2.7-3.9 1.1-0.5 2.8 2.5 1.8 1 1.7 0.8 2.2 0.3 1.4-0.8 2.4-3.3 0.7-0.3 3 0.6 1.1-0.2 1.7-1.5 2.1-0.6 0.9-0.5 0.4-0.9-0.1-0.7-0.8-1.3-0.2-0.9 0.7-2 1.5-0.6 3.5 0.1 1.5-0.4 0.2-0.5 0.2-2.2 0.4-0.8 1.4-1.5 1.6-1.2 1.3-0.4 10.8-1.7 1.3-0.7-0.1-1.8 7.7 0.7 2.4 2.8 0.4 0.8-0.2 1-1.3 1.3-1.6 0.3-1.1 2.3-2.8 3.5-2 1.5-1.8 1.7-1.2 2.7-0.4 3.8-0.7 1.8-1.5 0.7-0.5 0.8-0.5 1.7-0.4 2.1v1.7l0.6 1.9 1.1 1.6-1.5 1.6-0.8 1.8-0.2 1.2-1.7 2.5-0.9 2.9-0.1 3.4 1.9 2.5 1.2 0.6 1.2 0.1 0.7 1-0.4 1.6 0.9 2.5 2.6-0.2 6.9-2.6 5.1 3.2 0.7 3 1.3 2.8 2.3 1.8 2.7 1.2z" name="Bayelsa"/>
	<path d="m541.5 507-4.6 6.9 1 1.8 2.6-0.5 5.6-2.6 3.3-0.6 12.8-0.4 12.7 1.5 9.4 6.5 7.5 9.4 8.5 7.6 3.7 9.7-3.3 10.1-0.6 9.9-3.6 3.4-4.2 3-3.4 4.2-2.5 4.9-2.7 14.6 0.3 5.3-1 14.1-2 8.1h-1l-2.5 0.5-1.2 1.1-1.9 3.7-1.4 1.3-1.7 0.8-3.3 1.3-1.6-2.7-2.4-4.4-9.9-11.7-7.4-3.8-13.1 2.5-4.7 0.1-2.3-0.5-1.6-1.4 0.8-5-2-4.3-10-5.9-6-2.1-5.7-0.5-5.4 2-1.1 2.7 0.8 3.2-1.4 2.4-2.8 1.5-3.5 0.9-3.7 0.1-3.3-0.6h-3.3l-2.4 1.8-2.3 2.5-2.5 1.3-2.7 0.3-1.9-2.2-1.1-2.8-0.6-3.2-0.9-1.4-1.7-0.1-0.4 0.9-0.9 1.3h-1.9l-1.9 0.4-3.1 4.1-3.2 0.8h-3.3l-3.5 0.5-1.3 2.8-0.8 7-3.7 5-5.7-3.5-2.7-5.8 2.8-7.8v-4.1l-0.9-4-2.1-3.4-3.4-1.7-3 0.8-2.5 1.9-3.3 0.4-3.2-1.5-3.1-2.3-2.8-2.6-2.3-2.9-3.2-6.7-0.8-3.4 3.2 1.6 3.5 2.9 2.7 1.3 2.2-0.7 0.3-3.8 1.3-3.3 11.1-6.1 3.4-5.7 1.5-6.8 0.2-2.7 1-2.4 1.7-2.9-2.1-1.5-3.2 0.4-2.7-1.4-1-3.3-1.3-10.1 0.2-9.7-0.3-3-1.7-3-2.4-2.5-2.5-3.6-1-4.3-0.2-4.4 0.4-4.8 4.2 1 5.4 0.6 4 1.4 2.8 0.6 5.9 0.7 2.9 0.8 4.1 2.5 1.4 0.5 7 1.2 2.3 0.9 4.5 2.3 2.6 0.8 2.7 0.3 2.4 0.7 1.9 2 3.8 2.2 2.1 1.6 1 0.5 1.6 0.4 1.1-1.3-0.6-3-3.9-8.6-1.9-6.1 1.3-5.9 4.7-3.9 10.9-1.3 16.8 5.6 6.1 1.4 9.1 0.3 3-0.3v-0.4z" name="Benue"/>
	<path d="m568 632.6-0.5 0.1-2.4 1.6-2.5 4.9-2.4 1.4-3.3 0.1-1.2 0.6-1.1 1.3-2.4 5-2.1 3-11.4 9.2-7.7 8-1.7 2.6-1.1 1.2-1.3 0.7-0.5 0.5-0.2 2.4-0.3 1.1-1.4 0.2-1.8-0.7-1.8-0.2-1.4 1.3-1.2 1.5-2.9 1.9-0.9 1.4 0.2 1.7 0.9 1.3 0.7 1.5-0.4 2.1-1.4 1.8-1.5 1.1-0.7 1.2 1.1 2.1 1.7 1.6 1.9 1.5 1.5 1.6 0.9 2.3-0.4 2-1.2 1.6-1.6 1.5-1.3 1.6-0.5 1.8 0.4 3.3 0.1 1.8-0.6 1.8-1.8 3.6-0.5 2 0.1 1.1 0.7 2 0.1 0.9-2.2 11.4-0.6 1-2.8 1-0.9 0.9-1.6 2.5-0.5 1.1-1.2 3.7-0.8 1.6-1.2 1.8-3.3 5.2-0.5 1.5-2.3 1.6-0.7 1.3 0.3 1.8 0.5 2.4-1.4 1.3-0.8-0.8-0.7-0.1-0.7 0.3-1.6 1.6-1.2 3-0.2 1.6 0.5 1.3v0.7l-0.7 1.3-1 0.4-2.3-0.5-1.2 0.1-0.6-0.2 1.1-2.2 0.2-0.9-1.1-0.1-1.6 0.8-1.1 0.2-2.5-0.9-0.1-2.3 0.8-3 0.4-2.9h-0.5l-0.6 2.8-1.8 1.5-2.4-0.2-2.2-1.9 0.7-1.2-0.7-0.1-1.6-0.9 0.3-1.2-0.6-0.9-2.3-1.7-2.1-1.2-0.5-1.4-0.9-1.8-0.6-0.7-1.9-0.7-1-0.9-1.3-1.6-0.5 0.5 4.6 4.4 1.1 1.4 2.1 4 0.4 1.9-1.4 0.9 1.4 2.5 0.9 1.1 1.2 0.8-1-0.2-3.2-2.4-9.7-10.2-3-4.2-2.3-4.2-1.1-4.6 0.6-10.2-1.4-1.6-3.7-2.4-2.1-0.5-4.9 0.8-1.7-1.3-0.9-1.5-1.4-3.6 2.3-2.6 4 0.7 1-2.9-4-7.7-1.9-8.8 0.7-4.7-1.4-3.8 0.3-2.1 0.8-2 1.3-1.5 1.1-1.7-0.3-1.9 0.1-2 1.2-1.1 2.9-4.6 1.1-3.7-1.4-2.6 1-2.1 3.4-1.1 3.1 0.9 1.6 3.8 2.1-0.1 1.6-1.5 3.8-1.8 1.3-1.6 1.1-1.8h2.2l2.4 1.1 1.4-2.2 1.5-6.3 1.6-2.5 1.9-2.5 4.7-4.7 0.7-5.7-1.6-2.5 0.6-2.8 5.2-2.9-0.3-2.7-1.7-2.2-0.9-2.3-0.4-2.6-1.4-1.6-0.3-0.9-0.6-0.8-2.2-1.6-3.2-3.7-1.2-4.6 2.7-0.3 2.5-1.3 2.3-2.5 2.4-1.8h3.3l3.3 0.6 3.7-0.1 3.5-0.9 2.8-1.5 1.4-2.4-0.8-3.2 1.1-2.7 5.4-2 5.7 0.5 6 2.1 10 5.9 2 4.3-0.8 5 1.6 1.4 2.3 0.5 4.7-0.1 13.1-2.5 7.4 3.8 9.9 11.7 2.4 4.4z" name="Cross River"/>
	<path d="m699.4 366.2 8.9 0.7 29.2-1.2 7.7 14.5 2 1.9 2.8 0.5 2.8 0.9 4.8 4.3 2.8 6.1 1.6 2.5 0.8 2.6-0.4 2.9v3l2.9 4.9 5.3 2.5 3.4 4.3 0.5 5.9-8.3 17.4-0.6 5.8 0.4 3.1-0.8 2.7-5.6 4.6-21.5 25.9-5.4 4.9-4.6 5.4-0.7 2.6 3.6 9 3.3 6 2.3 2.3 2.7 0.3 2.2-1.9 1.8-2.3 1.7-2.5 2.6-1.2 3 1.3 2 2.5 8.1 7.7 4 9.6v5.7l1 5.5 2.1 4.5 1.1 4.3-4.9 4.8-5.2 7.7-1.6 1.6-1.5 1.2-0.7 0.7 0.5 0.5 2 0.4 1.1 1 4.2 6 3.2 3.5 1 2.1-0.7 1.9-0.8 0.4-1.5-0.6-0.9-0.1-1.1 0.4-1 0.6-3.5 3.2-1.3 0.8-0.3 1.5-0.5 0.7-2.8 0.5-0.9-0.1-0.7 0.5-0.6 1.5-4.8 3.1-5.1 4.7-1.5 2.1-0.5 2.3 0.5 1.2 1.9 2.1 0.4 1.5-0.2 2.3-0.6 2.2-2.4 5.6-2 2.8-2.2 1.3-3.3 0.3-2.2 1.8-1.2 2.8-0.6 3.5-0.5 1.9-1.6 1.5-2.1 1.1-2.1 0.5-0.9-0.1-2.7-0.5-1.2 1-1.1 0.1-1.4-0.8-7.6 0.8-2.2-0.3-1.4-1.2-1.6-4-1.4-6.5-0.3-3.3 0.2-3.3-0.3-4-1.6-3.4-2.8-2.2-7.8-1.4-2.7-2.7-1.6-3.7-0.8-3.8-1.3-3.3-2.8-1.9-6.8-2.6-5.8-3.1-2.2-0.7-1.5-1.2-0.5-4.1-1.5-2-1.2 2.4-1 3-0.7 3.2-0.5 6.4-1.4 0.8-1.7 2.5-0.3 1.3-0.1 1.9-21.4 0.3-2.3-0.7-1.7-1.3-0.9-1.7-1.2-6.1-0.7-1.4-1.2-0.3-1.9 1.2-20.4 17.3-1.9 0.8-1.6-0.5-1.7-0.8-1.9-0.1-1.6 1.8-6.4 20.3-1 0.8h-3l2-8.1 1-14.1-0.3-5.3 2.7-14.6 2.5-4.9 3.4-4.2 4.2-3 3.6-3.4 0.6-9.9 3.3-10.1-3.7-9.7-8.5-7.6-7.5-9.4-9.4-6.5-12.7-1.5-12.8 0.4-3.3 0.6-5.6 2.6-2.6 0.5-1-1.8 4.6-6.9 2.8-2.4 12.1-8.1 1.7-1.5-0.3-2.3-0.6-1.5 0.2-1.5-0.3-4.3-4.4-5.6 0.3-2.6 0.9-2.2 1.4-1.8 2-0.9 4.1 1.4 2 1 2.3 0.4 2.5 0.8 2.4 0.3 2.3-0.1 3.4-2.2 2.3-3.6 4.5 0.3 6.3-0.5 6-1.7 5.4-4.1 4.8-4.9 5.5-4 5.9-3.2 2.3-2.1 4.4-5.3 1.9-3 4-4.8 19.2-4.7 13.2-6.6 2.9-5.4-0.1-3.2-1.1-5.2 0.6-2.7v-2.4l-2.4-8-1.4-2.3-0.7-2.5-0.9-6.3 0.6-5.4-0.5-4.5-1.8-4 4.4-2.9 10.6-0.3 10.2-4.9 5.5-0.9 5.8 1.4z" name="Taraba"/>
	<path d="m295.8 438.4-3.5 4.6-3.4 11.6-1.3 8.7-0.8 2.5-1.7 2-2.8 0.6-9.2-2.1-11.5-0.6-8.2-1.9-8.3-3.1-4.2-4.2-3.3-1.3-3.7 3.4-9.5 11.9-0.7 2.8 2.5 4.8 1.2 1.5 1.5 1.2 0.8 1.6 3.4 3.1 5.5 3.4 0.7 5.1-9 0.3-2.9 0.9-1.8 2.1-0.5 2.7-1 2h-1.4l-3.5 0.6-2.1-0.5-3.3-0.2-5.5-3.5-5.2 1.6-1.7-0.7-0.4-1.5-1-0.6-1.2-0.2-4.8 0.6-2.5-1.6-1.7-2.9-3.5-0.1-3.3 1.3-5.4 0.5-2.3 0.5-2.1 0.9-4.7 1-5.4-0.5-5.4 0.3-1.4-0.9-1.4-0.3-1-1.7-2.4-8-3-4.9-2.2-1.4-1.9-1.7-3-4.4-2.9-11.3-2.9-4.5-7.4-16.4-1.1-5.1 1.1-5.1 1.8-1.8 1.4-2.2 2-2.1 2.8-1.6 2.8-4.1-1.4-3.2-4.1 2.5h-2.3l-6.1-1.4-9.8-3.5-3.7-1.9-3.2-2.8-1.9-3.7-2.4-3.1-3.8-1.7-4 0.4-3.7 2.7-2.1 4.1-0.8 5.5-1.6 1.8-1.9 1.4-17.1 8.6-3.6 2.7-3.4 1.7-3.7 2.8-9.8 4.5-1.1 0.2-0.9-1-1-0.5-0.6-0.9-1.4-0.3-1.3 0.1-1.9 0.6-1.8 1.1-3.4 3-1.7 1-1.3 1.1-0.6 0.8-1.9 0.8-4.6 3.7-1.5 1.9-2 1.3-6.6 1.5-3.2-0.1-4.9 4.2-1.6-20.6v-0.9l0.5-0.6 1.4-0.6 0.5-1.2-0.5-2.1 0.3-1.3 1-2.4 0.1-1.3-0.4-0.6-0.7-0.3v-0.8l1.2-2 0.5-2.3 0.2-5.3-0.3-2.3 6.4 0.6 1.1-0.2 1.5-1.3 0.9-0.6 0.9-0.2 2.6-0.1 0.9 0.1 2.5 1.4h1l5.7-1.4 2-1.5 1.3-2.6 2.8-8.7 1.7-3.2 0.5-1.8v-5.5l-0.3-1.4-1-2.6-0.6-2.4 0.3-2.3 1.6-2.6 0.6-0.5 1.4-0.4 0.6-0.6 5.1-6.7 0.1-0.4-0.6-1.6 0.6-2.1 1.4-0.4 1.6 0.3 1.5 0.1 2.7-1.6 0.6-2.2-0.7-2.5-1-2.6-0.3-1.7 0.2-1.9 0.7-1.7 1.4-1 5.9-2.5 3.3-0.8 5 0.5 1.5-1.4 2.1-4 2.7-3.2 0.9-1.7 0.5-7.2 0.5-1.4 1.3-1.2 1.2-0.6 1.1-0.8 0.8-2.3 7.7-1.5 13.3-0.4 5.7 0.8 2.4 2 27.9 33.2 1.3 1 1.3 0.8h2.9l1.3 5.7-0.8 6.8-0.1 6.3 2.7 4.7 6.1-0.8 7.3 1.1 0.1 0.5 0.5 6.3 0.3 1.4 0.7 1.1 1.2 1 1.4 0.5 4.1 0.7 2.4 0.9 1 1.7 0.1 2.2-0.5 2.5 0.2 2.6 1.5 1.6 2.3 0.8 2.6-0.2 3.3-1 3.7-2.2 5.4-1.7h1.2l1.1 0.3 2 0.9 0.1 0.5 1.5 0.7 2.8 1.9 4.3 2.1 1.3 0.9 1.4 1.9 1.4 1.5 0.4 0.9 0.1 2.7 0.6 1.1 1 0.7 1.2 0.4 7.9 1.3 5.6-0.3 1.2 0.2 1.9 1.3 1.5 1.5 1 0.8 2.2 0.7 2.5 0.2 2.3 0.6 1.6 1 1.1 1.5 1.8 1.5 1.4 1.7 1 1.9 1.1 0.9 1.3 0.4 4.8 0.1 3.2 1 1.1 1.7 1.2 1.7 0.9 1.5 0.5 0.6 1 0.3 4.4-0.1 3.7 0.6h1.2l1-0.2 2.7-1.2 2-0.4 9.1-0.1 1.3 0.2 1.2 0.5 2.6 2.4 0.6 0.2z" name="Kwara"/>
	<path d="m139.9 636.5-17.9-3.3-21.3-1.8-35.5 1.8-1.9-0.3-1-0.7-0.8-1-1.2-0.9 1.4-0.5 0.9 0.5 1.3-1.1 0.5 0.4 0.5 2.5 2.9-2.7 0.8 0.8 1.7-0.4 1.6-0.1 1.4-0.2 1.3-0.7 1.2-1.3 0.1-0.9-0.1-1.7 0.8-0.3h3.4l1.8-0.3 3.6-1.2 1.2 0.3 1.8-0.7 1.7-1 1.2-1.3 0.4-1.8 1-0.4 7-1.1-1.2-0.7-1.1 0.2-4.7-1.2-4.7 1.8-4.5 2.6-4 1.3-2.4 0.2-2.9 1.5-1.9 0.6h-1.1l-1.3-0.5h-1l-0.8-0.7-0.4-2.1 0.6-1.8v-1.2l-1.4 0.9-1 0.8-1.8 2.1-2.3 0.4-0.3 0.7 0.5 1.8-0.3 1.7-1.1 1.8-0.6 1.6-0.9 1 1.6 2.5-0.4 1.9-4.9 0.5-9.3-0.4-10.9 1.2-12.9-0.6-18.6 1.7v-5.1l0.6-3.7 3.3 0.3 2.8-0.3 2.2 0.7 2.1-0.1 2.2-1.5 1.6-1.8-0.1-1.2 0.9-0.5 18.2 0.8 4.9-0.6 1.2-1.4 0.9-4.1 1.2-1.7 1.3-1.4 1.2-4.3 0.5-1.2 2.6-1.1 2 0.6 3.8 2 1.9 2.5 3 0.1 1.6-0.3 1-1.4 0.2-1.2 0.8-0.8 48.6-0.2 4.9 1.3-0.9 2.2-2 1.6-0.7 2.1 0.8 2 0.1 1.1 2.4 1.9 2.5-1.3 2.5-1.7 2.7-0.6 2.4 0.9 0.9 1.7-0.8 1.8-4.8 2.6 0.2 2.1 1.9 1.2 2.3 0.6 1.2 1.1 1.4 0.9 1.9-0.5 4.8 0.2 2.3 0.8 0.1 2.2z" name="Lagos"/>
	<path d="m280.1 237.1 3.5 4.7 6.4 10.8 1.3 5.6-1.7 0.8-1.6 1.9-0.7 2.1-0.5 7.1 0.1 2.1 1.4 4.3 0.1 2-0.4 1.9-1.2 2.9-0.2 1-0.2 3.4-0.5 1-0.3 1.7 0.5 2.9 2.7 2 2.1 2.5 1.4 2.9 2.9-0.4 2.1-2.4 1.8-2.8 4.3-4.7 9.9-7.7 5.9-1.3 2.2 1.5 1.1 2.6 2.6 0.5 6.1-2.8 3.1-0.6 3.2 0.5 1.9-1.3-0.4-3.4 2.7-1.1 3 0.2 2.6 1 0.7 1.7 0.5 6.8 1.4 0.4 2.9-0.9 4.6 3.9 0.1 6.8-1.1 3 1.8 1.9 5.9 2.2 2.5 1.7-0.2 2.9-2 2.6-2.7 1.8-2.7 2.2-2.2 2.7-2.8 1.8-2 2.3 3.8 4.9 5.9 2.6 6.2 0.7 12.3-0.2 4 2.8 1.6 13.5-0.1 3.1-2.2 1.8-2.6 0.2-1.8 1.4 1.7 2.3 3 0.9 1.8 1.5-0.7 2.3 1.2 2.1 2.5 1.3 0.5 2.7-1.9 2.1-1.2 1.1-0.8 1.4-0.3 1.7-0.5 1.6-4.5 3.3-0.7 3.1 1.7 2.6 1.1 0.7 1.4 1.8-0.2 1.2-0.9 2.6 0.5 1.3 2.1-0.6 2 0.5-11.7 16.7-0.5 0.1-4-2.2-7.7-7.6-5-1.5-15.4 0.6-2 0.9-0.4 2.4 0.8 60.1 0.5 1.5 2 3.6 3.8 0.4-1.1 3.3-2.5 2.4-1.7 0.6-1.3 1.3 0.2 1.9-0.4 1.4-1.2-0.7-1 0.8-1 2.1-0.5 2.2-1.4 1.5-0.3-0.5-1.2-1.1-0.1-0.5-1-0.5-3.1-3.4-3.3-5.2-1-1.1-8.2-6.3-0.6-0.3-1.9-3.9-1.1-4-0.2-2.5-0.5-1.5-0.7-0.7-1.3-2.7-0.2-2.2-2-3.5-1.1-1.1-1.3-0.7-1.7-0.3-3.1-2.1-0.6-0.5-1.4-0.1-3.7 0.7-4.6 0.9-0.6-0.2-2.6-2.4-1.2-0.5-1.3-0.2-9.1 0.1-2 0.4-2.7 1.2-1 0.2h-1.2l-3.7-0.6-4.4 0.1-1-0.3-0.5-0.6-0.9-1.5-1.2-1.7-1.1-1.7-3.2-1-4.8-0.1-1.3-0.4-1.1-0.9-1-1.9-1.4-1.7-1.8-1.5-1.1-1.5-1.6-1-2.3-0.6-2.5-0.2-2.2-0.7-1-0.8-1.5-1.5-1.9-1.3-1.2-0.2-5.6 0.3-7.9-1.3-1.2-0.4-1-0.7-0.6-1.1-0.1-2.7-0.4-0.9-1.4-1.5-1.4-1.9-1.3-0.9-4.3-2.1-2.8-1.9-1.5-0.7-0.1-0.5-2-0.9-1.1-0.3h-1.2l-5.4 1.7-3.7 2.2-3.3 1-2.6 0.2-2.3-0.8-1.5-1.6-0.2-2.6 0.5-2.5-0.1-2.2-1-1.7-2.4-0.9-4.1-0.7-1.4-0.5-1.2-1-0.7-1.1-0.3-1.4-0.5-6.3-0.1-0.5-7.3-1.1-6.1 0.8-2.7-4.7 0.1-6.3 0.8-6.8-1.3-5.7h-2.9l-1.3-0.8-1.3-1-27.9-33.2-2.4-2-5.7-0.8-13.3 0.4-7.7 1.5 0.2-1.6-0.2-1.3-0.8-1-5.6-5.9-1.2-1.9-0.1-1.6 1.7-3.9 2.1-3.2 0.4-1v-1.7l0.8-1.3 1.6-1.6 1.7-0.6 1.7 0.4 5.4 2.8 1.3-0.2 1.2-1.6 0.6-1.6 0.1-4.4 0.7-2.2 2.1-4.2 0.7-2.3-0.1-4.7-0.4-2.4-0.7-1.7-1.1-0.6-2.2-0.5-0.8-1-0.8-2.8-0.4-0.9-2-2-0.5-1 0.1-1.5 1.8-4.5 0.1-2.5-1.7-7.5-0.8-1.5-0.6-1.5-0.4-1.7v-1.9l0.9-3.3-0.7-0.6-0.7-0.1 0.6-0.6 7.6 0.9 7.4 4.6 9.3 4.3 4.4 0.5 22.8-0.6 8.6-1.2 8.4 2.2 10.1 6.7 5.4 1.6 0.1 2.1-2.8 15.1 0.1 3.2-0.2 1.5-0.6 1.1-2.1 2.2-0.2 1.5-9.6 5.5-3.2 5.4-0.5 6.3 0.3 3.2 1.3 2.9 2.2 1.7 1.7 1.9-0.5 6.2-1.2 6.2 2 1.8 5.6 0.3 1.1-2.2v-3.4l0.9-3 2.9-1 9.7-2 2.8-1 2.4-1.7 2.1-5.6-2.6-5.7-3.9-5.2-0.5-2.8 0.4-2.9-0.4-6.4 1.4-5.6 2.6-1 5.8 0.8 5.6-2.7 5.9-1.7 2.2-1.7-1.8-5.6-3.4-4.3 4-5.1-0.2-3.4-0.8-3.4-1-2.5-2.3-0.7-1.1-0.6-0.7-1.5-1.1-0.7h-1.4l-6.4-1-6-2.5-5.2-4 1.3-5.4 11.4-5.1 24.6-5 6.1 0.1 4.9 3 1.1 6.4 3 5.4 2.7 1.7 1.3 2.8-0.5 6.5 0.1 3.3 1.1 3 2.2 0.8h8.3l5.5-1 14.4-6.1 2.9-0.8 2.9-0.3 2.1-1.7 0.9-1.3 2.1-2.4 1.2-1 2.9-0.1z" name="Niger"/>
	<path d="m117.9 574.4 5.9-2.9 1.7 3.6 0.7 3.7 3.4-0.4 3.1-2 3.9-0.1 2.7 2.3 1 2.1 0.8 2.1 0.2 1.4 0.5 1.2 2.3 0.1 3-1.6 1.7 0.5 1.8 0.1 1.4-0.6 1.5-0.4 3.4-0.3 1.3 1.6-1.9 11-1.6 2.1-7.5 5.5-4.1 4.4-2.1 5.5v2.6l1.2 2.1 1.1 0.8 2.7 0.9 1.4 0.2 4.3 0.2 3.6-2.3 1.3-1.9 2.1-1 1.5 2.2v5.9l0.8 3.9-0.2 1.2-1 1-1.3 0.4-4.2 3.1-2.7 0.4-1.4 0.5 1.5 1.7h2.5l4.6 2 0.1 2.3-1.3 1.5-5-0.4-0.1 0.1-7.3-3.2-5.3-1 0.4-2.5-0.1-2.2-2.3-0.8-4.8-0.2-1.9 0.5-1.4-0.9-1.2-1.1-2.3-0.6-1.9-1.2-0.2-2.1 4.8-2.6 0.8-1.8-0.9-1.7-2.4-0.9-2.7 0.6-2.5 1.7-2.5 1.3-2.4-1.9-0.1-1.1-0.8-2 0.7-2.1 2-1.6 0.9-2.2-4.9-1.3-48.6 0.2-0.8 0.8-0.2 1.2-1 1.4-1.6 0.3-3-0.1-1.9-2.5-3.8-2-2-0.6-2.6 1.1-0.5 1.2-1.2 4.3-1.3 1.4-1.2 1.7-0.9 4.1-1.2 1.4-4.9 0.6-18.2-0.8-0.9 0.5 0.1 1.2-1.6 1.8-2.2 1.5-2.1 0.1-2.2-0.7-2.8 0.3-3.3-0.3 0.3-1.7 1.9-5.4 0.1-1.7-0.7-3.6v-1.7l1-1.8 1.5-1.3 1-0.7 0.5-1-0.3-3.8-0.1-0.9-0.5-0.4-1.9-0.3-1.4-1.4-0.4-1.6 0.2-1.8 0.9-3.5-0.4-3.6-1.1-3.2-0.3-3 2.2-3 2.9-1.3 0.3-0.9-0.5-0.8-2.2-1.8-0.7-0.9-0.2-1.6 1.1-2.2 0.7-0.9 0.3-1.9-1.7-20.7 0.2-0.9 0.6-0.4h0.9l1.8 0.4 0.5-1.4 0.2-3.5-1.8-3.1-2.5-2.9-1.6-3.1-0.5-3.3 1-14.1-0.2-1.2-0.8-1.2-1.9-2.3-1-2.4-0.7-1.3 0.6-0.3 7.1-5.1 8.1 0.2 2.1 4 0.4 9.3 1.5 4.6 2.3 0.4 0.8-4.3 1.2-3.7 3.2-0.1 0.5 7.4-3.1 8.5 0.1 1.8 1.6 4.3 3.5 2.9 2.7 3.6 3.8 6.8 5.8 5.3 4.6 1.6 4.6-0.2 3.4-2.9 3.3-8.3 3.5-2.3 3 2.3 1.5 4.1 2.4 1.3 2.4-1.3 2.5-1.1 8.3 0.2 2.9 4.1-0.1 4.7 0.2 1.4 2.5 1.8 2.4 1.3 0.5 1.5v1.6l0.2 1.3 0.6 1.2 1 5-3.1 4.3-2.3 3.8 5 0.2 10.3-1.2 5.1-1.4 2.3-1.5 2.7-0.9 2.5-0.2z" name="Ogun"/>
	<path d="m280.2 535.7-1.5 2.5-1.9 2.3-1 0.5-2.3 0.5-1.1 1-0.8 2.9 2.5 1.6 0.4 1.5-0.9 1.8 0.3 2.6 0.5 1.2 0.3 1.9-0.8 2.7-1.1 1.2-1.4 0.9-2 1.8-1.8 2.1-0.1 1.1 0.2 0.8-3.8 8.8-0.5 2-1.1 1.5-2.2 2.3-1.1 3-0.2 3 1.2 2.5 0.3 1-1.1 1.5 0.1 1.3-1.9 0.5-0.8 2.1-1 5.3-0.4 1.2-1.2 2-0.9 0.6-1.4 0.5-2.6-0.6-1.1-1-2.4-0.2-4.1 3.3-1.8 0.3-2.2-5.5 0.8-2.4 1.4-2.1-3.8-3h-23.3l-1.4 0.6-1 1.1v2.2l-1.3 1.8-1.1 2.2-3 2.9-2.5 3.2-1 1.8-0.3 2.7-0.3 1.2v2.6l0.4 0.7 0.7 0.3 1.4 2.3 1.5 4.4-1.9 4.4-1.4 2.1-0.6 2.5-1.2 2.1-2.1 1.1-1.8 0.6-1.2 1.8-0.4 2.4-1.2 2.3 0.5 0.8 1.7 1 2 1.7 1.7 2.1 0.2 1.1 1.8 0.3 1.9 1.1 1.6 2.4-0.1 2.7-9.3 22.7-9.7-12.7-1.7-1.6-3.3-1.4-1.5-1.7-2.1-3.3-2.9-3.1-2.6-2-9-5.7-5.1-4.8-3.2-2.1-1.3-0.6 0.1-0.1 5 0.4 1.3-1.5-0.1-2.3-4.6-2h-2.5l-1.5-1.7 1.4-0.5 2.7-0.4 4.2-3.1 1.3-0.4 1-1 0.2-1.2-0.8-3.9v-5.9l-1.5-2.2-2.1 1-1.3 1.9-3.6 2.3-4.3-0.2-1.4-0.2-2.7-0.9-1.1-0.8-1.2-2.1v-2.6l2.1-5.5 4.1-4.4 7.5-5.5 1.6-2.1 1.9-11 3.2-1.7 1.3-1.8 0.6-2.2 2.3-3.8 3.5-2.9 3.3-0.9 3.1 1.3 4.2 2.7 1 0.5 2.2 0.2 0.9-0.6 0.2-1.9-0.2-1.9 0.3-2.2-0.1-6.3 0.7-4 1.5-4 3.6-1.8 4.1-1.2 0.1-3.3 5.8-1.9 3.1-0.1 9.1 0.6 5.9-0.3 4.3 1.3 2 4 1.8 5.9 4.6 1.8 8.8-7.4 4.6-10.7 1.4-8 1.1-2.4 3.7-3.9 2.1-1.3 1.1-1.4 0.8-1.5 2.1-1.2 2.3 1 2.1-0.8 1.5-2.4 6.7-1.2 2.5 1.1-0.6 3.3 4.2 6.5z" name="Ondo"/>
	<path d="m262.2 520.3-1.5 2.4-2.1 0.8-2.3-1-2.1 1.2-0.8 1.5-1.1 1.4-2.1 1.3-3.7 3.9-1.1 2.4-1.4 8-4.6 10.7-8.8 7.4-4.6-1.8-1.8-5.9-2-4-4.3-1.3-5.9 0.3-9.1-0.6-3.1 0.1-5.8 1.9-6.6-17.9-0.5-4.3 0.9-3.7 0.7-10.1 3.9-5.1 3.1-1.5 2.6-2.3 1.9-6.9 1 0.6 0.4 1.5 1.7 0.7 5.2-1.6 5.5 3.5 3.3 0.2 2.1 0.5 3.5-0.6h1.4l1-2 0.5-2.7 1.8-2.1 2.9-0.9 9-0.3-1.7 2.3 0.1 3.6 1.6 0.6 2.3-1.4 3-0.7 3-0.3 1.6 0.2 1.2 0.9-0.1 1.9-1.9 1.1-2.4 3-0.6 3.6 1.2 3.6 2.8 2.5 1.1-0.1 1.4 1.2 6.5 3.2z" name="Ekiti"/>
	<path d="m200 497.2-1.9 6.9-2.6 2.3-3.1 1.5-3.9 5.1-0.7 10.1-0.9 3.7 0.5 4.3 6.6 17.9-0.1 3.3-4.1 1.2-3.6 1.8-1.5 4-0.7 4 0.1 6.3-0.3 2.2 0.2 1.9-0.2 1.9-0.9 0.6-2.2-0.2-1-0.5-4.2-2.7-3.1-1.3-3.3 0.9-3.5 2.9-2.3 3.8-0.6 2.2-1.3 1.8-3.2 1.7-1.3-1.6-3.4 0.3-1.5 0.4-1.4 0.6-1.8-0.1-1.7-0.5-3 1.6-2.3-0.1-0.5-1.2-0.2-1.4-0.8-2.1-1-2.1-2.7-2.3-3.9 0.1-3.1 2-3.4 0.4-0.7-3.7-1.7-3.6-5.9 2.9 5.7-30.4-0.5-2.4-1.6-1.9-1.3-2.7-1.9-2.3-2.3-1.5-1.7-1.9 0.1-2.4 1.4-2.1 0.8-2.4 0.4-2.5 0.3-5.5 1.4-3.8 5.6 1.5 4.3-3.1-0.1-1.8 1.6-1.5 1.5-2.2 1.8-1.8 2.6 1 2.3 2 3.1 5 3.3 0.7 1.8-1.8 2.4-1.7 1-1.3 0.8-0.3 1.4-1.2 1.6-0.9 1.5-0.6 1.8-0.3 1.1-1.6 0.2-2.9-0.6-2.8 5.4-0.3 5.4 0.5 4.7-1 2.1-0.9 2.3-0.5 5.4-0.5 3.3-1.3 3.5 0.1 1.7 2.9 2.5 1.6 4.8-0.6z" name="Osun"/>
	<path d="m157.7 497 0.6 2.8-0.2 2.9-1.1 1.6-1.8 0.3-1.5 0.6-1.6 0.9-1.4 1.2-0.8 0.3-1 1.3-2.4 1.7-1.8 1.8-3.3-0.7-3.1-5-2.3-2-2.6-1-1.8 1.8-1.5 2.2-1.6 1.5 0.1 1.8-4.3 3.1-5.6-1.5-1.4 3.8-0.3 5.5-0.4 2.5-0.8 2.4-1.4 2.1-0.1 2.4 1.7 1.9 2.3 1.5 1.9 2.3 1.3 2.7 1.6 1.9 0.5 2.4-5.7 30.4-2.5 0.4-2.5 0.2-2.7 0.9-2.3 1.5-5.1 1.4-10.3 1.2-5-0.2 2.3-3.8 3.1-4.3-1-5-0.6-1.2-0.2-1.3v-1.6l-0.5-1.5-2.4-1.3-2.5-1.8-0.2-1.4 0.1-4.7-2.9-4.1-8.3-0.2-2.5 1.1-2.4 1.3-2.4-1.3-1.5-4.1-3-2.3-3.5 2.3-3.3 8.3-3.4 2.9-4.6 0.2-4.6-1.6-5.8-5.3-3.8-6.8-2.7-3.6-3.5-2.9-1.6-4.3-0.1-1.8 3.1-8.5-0.5-7.4-3.2 0.1-1.2 3.7-0.8 4.3-2.3-0.4-1.5-4.6-0.4-9.3-2.1-4-8.1-0.2-7.1 5.1-0.6 0.3 0.1-1 1.2-2.4 0.3-5.3 1-5.3 0.2-5 0.3-1.6 0.6-1.4 0.9-1.4 0.6-1.6 0.1-1.8-0.6-1.8-1.6-3.5-0.7-1.8-0.3-2.1 0.1-1.6 0.7-3.4-0.2-3.1 0.4-1.1 1.7-1.9 0.6-1 0.7-2.8-0.2-2.5 4.9-4.2 3.2 0.1 6.6-1.5 2-1.3 1.5-1.9 4.6-3.7 1.9-0.8 0.6-0.8 1.3-1.1 1.7-1 3.4-3 1.8-1.1 1.9-0.6 1.3-0.1 1.4 0.3 0.6 0.9 1 0.5 0.9 1 1.1-0.2 9.8-4.5 3.7-2.8 3.4-1.7 3.6-2.7 17.1-8.6 1.9-1.4 1.6-1.8 0.8-5.5 2.1-4.1 3.7-2.7 4-0.4 3.8 1.7 2.4 3.1 1.9 3.7 3.2 2.8 3.7 1.9 9.8 3.5 6.1 1.4h2.3l4.1-2.5 1.4 3.2-2.8 4.1-2.8 1.6-2 2.1-1.4 2.2-1.8 1.8-1.1 5.1 1.1 5.1 7.4 16.4 2.9 4.5 2.9 11.3 3 4.4 1.9 1.7 2.2 1.4 3 4.9 2.4 8 1 1.7 1.4 0.3z" name="Oyo"/>
	<path d="m391.3 665.8-5.6 3-3.9 4.9-3.4 0.8-3.4 1.1-7.6-1.6-3.8 0.4-3.7 0.9-3.2 1.9-1.1 3.6-3.2 6.7-3.3 0.9-3.6-1.5-6.5 1.8-5.5 4.5-2.8-0.2-2.5-2.3 0.3-3.5 0.6-2.3 0.8-2.1 1.6-2.9 3.3-4.4 0.5-1.5-0.1-2.2 1.1-4.3-0.3-4.4 0.4-1.9 1.6-1.3 2-0.8 0.5-0.7 0.4-1.1 0.2-3.7-0.1-1.2-0.4-1.1-1.1-2.1-0.4-1.2-0.3-3.2-1.5-4.1-0.5-4.6-2.3-8.2-0.4-2.5v-2.6l0.8-0.2 1.8 0.1 2.2 0.5 2.1-0.4 2.8-2.7 1.8-8.2 2-4 5.6-5.3 0.7 2.3-0.1 2.7 1.1 0.5 4.5-0.2 4.8 2.1 2.6 0.5 2.6 1.1-0.4 5.7-4.6 5-2.3 6.3 0.8 2.1 1.2 0.6 2.8 0.5 1.2 0.7 1.7 2.3 3.4 7.7-1.1 1v1.6l-0.5 2.5 0.7 1 1.3-0.3 1.2-0.9 1.3 0.9 0.4 2 2 1.5-0.5 2.9 1 2.4 1.4 2.3 0.9 2.6 1.8 2.1 2.3 0.4 2.2-0.7 0.9 0.1 1.5 0.9 0.4 0.9z" name="Anambra"/>
	<path d="m694.9 221.6-1.7 1.2-1.3 1.9-2 2.2-7.8 4.5-4 5.5-2.7 2.1-6.3 1.9-2.5 2.2-2.5 6.3-2.9 10-1.2 3.1-4.4 6.2-0.2 2.3 8.9 3.9 2.6 5.8 0.9 6.7 5.9 2.8 5.3 3.3 1.8 5.1-0.2 11.8 0.3 2.5-0.2 2.5-9.5 4.8-0.5 2.8 3.5 4.9 17.2 12.8 2.4 5.6 0.6 5.4 1.4 5.3 2.3 4.8 1.9 2.4-0.6 2h-5.7l-5.8-1.4-5.5 0.9-10.2 4.9-10.6 0.3-4.4 2.9-2.6-1.1-13.9-8.7-40.8-19-2.6 0.6-1.2 0.8-1.1 1.9 3.3 4.6 1.1 3-0.8 2.8-5.5 2.1-2.1 1.8-2.5 5.2-2.9 1.2-3.3 0.7-13.1 0.7-11.8-2.2-5.1-1.7-2.9-5-3.7-4.4-3-0.9-2-2.1 0.4-2.6 1.1-2.4 1.4-2.3 0.7-2.5-0.4-6.9-1.8-5.8-5.3-1.9-9.6 1.7-3.1-2.1 0.1-13.5-0.4-4.2-1.7-4.6-2.9-3.7-4.9-1.3-4.8 0.9-1.8-2.1-1.9-1.8-2.5-1.4-1.2-2.2 2.9-5.1 0.9-5.5 3.8-4.2 2.3-5.6-0.6-5.8-3.8-4.5-2.3-6.5-0.3-7.1 0.5-6.4 2.6-5.3 4.9-0.3 3-1.4 2.3-2.4 3.2-4.9 8.5-8.9 5.6-2.6 2.7 1.5 1.5-0.3 6.3-2.6 5.1 0.1 4.9 1.4 5.2 2.2 5.3 0.3 5.2-0.8 3.3 4.2 4.2 1.5 10.7-0.8 4.8-1.2 3.6 3.4 1.9 5.1v5.5l-0.7 5.4 1.9 4.7 4.8 2 13.1-1 2.9 1.5 3.2 1.2 2.3-1.4-1-3.1 1.8-5.7 9.2-3.6 2.8-1.8 2-2.3 0.4-2.8-6-2-7.1-0.3-13.2-2.5-6.1-2.4-8-10.7-3.4-6.1-1.5 0.5h-2.7l-1.6-2.3 0.3-2.8 2.8-5.2-0.1-2.9-1.3-6.1-1.3-2.8-2.8-0.7-3 0.4-5.1 1.4-3.5-2.4 1.7-6.3 4.5-4 7-0.6 2.8-1.3 2.7-1.8 25.4-9.7 1.3-2.9-0.7-3.5 0.5-2.8 6-16.9 0.8-3.8 1.2-3.7 1.9-1.8 2.6-1 6.2-1.1 2.6 1.7 4.4 1.1 11-7.4 5.6 3.9 4.8 4.7 1.1 3.2 1.3 6.7 0.1 3.4 0.4 3 1.7 2.7 1.7 3.3 0.5 3.7 0.1 5.9 2.5 13.6 10 24.8 0.5 7.2-2.9 13.2 2.2 2.8z" name="Bauchi"/>
	<path d="m752 281 1.1 7.3-6.2 10.1-0.2 3.7 1.8 3.7 2.6 3.2 3.1 2.2 3.6 1.4 3.1 2 5.6 9.1 5.9 3.8-0.9 7.3 0.5 11.2-1.3 3.5-3.1 2.5-15.4 9.3-7.1 3.2-7.6 1.2-29.2 1.2-8.9-0.7 0.6-2-1.9-2.4-2.3-4.8-1.4-5.3-0.6-5.4-2.4-5.6-17.2-12.8-3.5-4.9 0.5-2.8 9.5-4.8 0.2-2.5-0.3-2.5 0.2-11.8-1.8-5.1-5.3-3.3-5.9-2.8-0.9-6.7-2.6-5.8-8.9-3.9 0.2-2.3 4.4-6.2 1.2-3.1 2.9-10 2.5-6.3 2.5-2.2 6.3-1.9 2.7-2.1 4-5.5 7.8-4.5 2-2.2 1.3-1.9 1.7-1.2 11.6-3.1 11.4 5.6 5.3 4.2 4.6 4.9 4 5.5 8.7 8.8 1.8 2.3 0.5 2.9-1 19.4 0.5 6.1 0.8 2.5 5.8 0.6z" name="Gombe"/>
	<path d="m328.2 690.7-2.1 9.7-1.7 3.8-0.7 4.1-1 2-1.6 1.7-2 0.9-1.7 1.8 1.5 3.7 0.1 1.8-1.3 0.7-10.8 1.7-1.3 0.4-1.6 1.2-1.4 1.5-0.4 0.8-0.2 2.2-0.2 0.5-1.5 0.4-3.5-0.1-1.5 0.6-0.7 2 0.2 0.9 0.8 1.3 0.1 0.7-0.4 0.9-0.9 0.5-2.1 0.6-1.7 1.5-1.1 0.2-3-0.6-0.7 0.3-2.4 3.3-1.4 0.8-2.2-0.3-1.7-0.8-1.8-1-2.8-2.5-1.1 0.5-2.7 3.9-2.3 1.2-2.6 0.5-1.5-0.3-1.6 0.5-1.5 0.7-1.6 0.5-2.8 2-3 1.6-1.3-0.1-1.5 0.2-2-0.3-1.6-1.2-4.2-2.3-3.8-1.3-3.2-2.1-2.3-1.9-0.4-1.3 1.7 0.2 1.7 0.4-0.6-1-2.3-2.5-0.8-0.5-0.3 0.4v1.5l-0.3 0.3-1.3 0.2-1.3 0.4-1-0.5-2 0.4-0.9-0.5-0.2-0.6 0.2-3.1-0.4-3.8-1.7-7.5 0.4-1.1 2-0.5 5.5-0.1 1.6-0.4 0.4 1.3 0.7 1 0.7-0.5 0.6-1.3 0.9-0.9 2.9-1.1 1.4-0.2h1.3l0.7-0.5-2-1.7-0.8-1.3-0.4-2.5 0.2-1.3 0.5-1 1.1-0.7 1.3-0.3 2.7 0.1 1-0.5 1-1.1 1.2-1.9-1.3 0.6-1.2 1-1.1 0.6-1.6-0.4-1.1 1.2-1.9-0.5-2 1-1.2 1.9 0.5 2.1-0.9 2.1-1.1 1.2-1.4 0.3-1.7-0.7-1-1.5-1-0.2-0.4 0.5 0.2 1.1 1.1 1.8-4.9-0.2-9.3-3.2-1.1-1.8-2.7-2.4-1.7-1.2-0.6-1.8-0.2-1.8 0.3-0.8 0.5-0.3 1.4-1.5 1.3-0.6 8.2 0.3 3 0.6 1.8 0.9h0.5l0.9-1.1 1.3-3 0.7-1 1.1-0.5 1.3 0.1 1.2 0.3 0.9 0.7 0.9 2.8 1.3-0.3 0.1-1.4-0.6-1.3-1.4-1.4-1.7-1.2-1.4-0.7-1.6 0.1-0.8 0.8-1 2.6-0.9 0.8-1.4 0.6-1.5 0.4-1.3-0.1-1.6-0.9-0.7-1.2v-1.4l1.6-4.6 0.2-1.2-0.2-1.6h-0.5l-2.2 6.3-0.9 1.6-1.1 1.1-1.5 0.6-1.9 0.1-0.9 0.3-2 1.1-2.1 0.8-1.6-1-1.3-1.2-1.3-1.6-1-1.7-0.8-2.4-1.6-2.7-0.3-1.9 0.2-1.7 0.5-1.9 0.8-1.5 1-0.7 1 0.4 1.7 1.3 0.6 0.2 0.4-0.6-0.5-1.6 0.1-0.8 2.6-2.3 6.8-2.5 1.9-3.2-1.7 0.3-2.9 2.6-3.2 1-6.4 3.3-1.2 0.9-4.2 3.9-0.8-0.1-3.1-6.8-0.4-0.5 9.3-22.7 5.9 2.8 3.9 4.5-0.8 5.6 0.7 4.3 1.7 1.3 1.4-0.6 4.8-4.2-0.4-2.7 0.8-2.1 5.4 0.3 2.5-0.4 3.1 0.2 3.2 2.3 2.4 0.8 0.8-0.7 0.5-1.1 4.6-2.9 5.1-0.2 9.7 5.3 4.6 5 2.8 1.5 2.3 1.8-0.4 3-1.7 3 0.3 0.9 1 0.8 0.4 1-0.3 1 0.1 1.3 1.4 0.5 1.5-0.1 8.1-1.7 4.3-3.1 3.4-4 4.6-3.5 3.5-4 1-3.2-0.1-3.3-1.1-0.9-1.5-0.4-5-4.6-2.5-4.2-1-3.3-0.3-2.8-2.7-4.7 0.3-3 1.2-2.4 1.9-1.8 2.9 0.3 2.1 2.2 1.7 2.7h2.3l3.4-4.3 2.2-1.4 7.9-3.3 10.1-6.1 5.1-2.1 2.9-0.1 3 0.5 2.3-0.8 2.6-3.1v2.6l0.4 2.5 2.3 8.2 0.5 4.6 1.5 4.1 0.3 3.2 0.4 1.2 1.1 2.1 0.4 1.1 0.1 1.2-0.2 3.7-0.4 1.1-0.5 0.7-2 0.8-1.6 1.3-0.4 1.9 0.3 4.4-1.1 4.3 0.1 2.2-0.5 1.5-3.3 4.4-1.6 2.9-0.8 2.1-0.6 2.3z" name="Delta"/>
	<path d="m334.1 622.8-2.6 3.1-2.3 0.8-3-0.5-2.9 0.1-5.1 2.1-10.1 6.1-7.9 3.3-2.2 1.4-3.4 4.3h-2.3l-1.7-2.7-2.1-2.2-2.9-0.3-1.9 1.8-1.2 2.4-0.3 3 2.7 4.7 0.3 2.8 1 3.3 2.5 4.2 5 4.6 1.5 0.4 1.1 0.9 0.1 3.3-1 3.2-3.5 4-4.6 3.5-3.4 4-4.3 3.1-8.1 1.7-1.5 0.1-1.4-0.5-0.1-1.3 0.3-1-0.4-1-1-0.8-0.3-0.9 1.7-3 0.4-3-2.3-1.8-2.8-1.5-4.6-5-9.7-5.3-5.1 0.2-4.6 2.9-0.5 1.1-0.8 0.7-2.4-0.8-3.2-2.3-3.1-0.2-2.5 0.4-5.4-0.3-0.8 2.1 0.4 2.7-4.8 4.2-1.4 0.6-1.7-1.3-0.7-4.3 0.8-5.6-3.9-4.5-5.9-2.8 0.1-2.7-1.6-2.4-1.9-1.1-1.8-0.3-0.2-1.1-1.7-2.1-2-1.7-1.7-1-0.5-0.8 1.2-2.3 0.4-2.4 1.2-1.8 1.8-0.6 2.1-1.1 1.2-2.1 0.6-2.5 1.4-2.1 1.9-4.4-1.5-4.4-1.4-2.3-0.7-0.3-0.4-0.7v-2.6l0.3-1.2 0.3-2.7 1-1.8 2.5-3.2 3-2.9 1.1-2.2 1.3-1.8v-2.2l1-1.1 1.4-0.6h23.3l3.8 3-1.4 2.1-0.8 2.4 2.2 5.5 1.8-0.3 4.1-3.3 2.4 0.2 1.1 1 2.6 0.6 1.4-0.5 0.9-0.6 1.2-2 0.4-1.2 1-5.3 0.8-2.1 1.9-0.5-0.1-1.3 1.1-1.5-0.3-1-1.2-2.5 0.2-3 1.1-3 2.2-2.3 1.1-1.5 0.5-2 3.8-8.8-0.2-0.8 0.1-1.1 1.8-2.1 2-1.8 1.4-0.9 1.1-1.2 0.8-2.7-0.3-1.9-0.5-1.2-0.3-2.6 0.9-1.8-0.4-1.5-2.5-1.6 0.8-2.9 1.1-1 2.3-0.5 1-0.5 1.9-2.3 1.5-2.5 1.4 0.7 1.7-0.3 1.4 0.9-0.3 1.6 2.7 0.9 0.6 1.9-0.9 3.7 2.1 2.9 3.8-0.1 3.8-1.6 1.7-1 1.6-0.4 0.9 1.5 1.2 1 2.8 1.9 2.3 2.7 2 0.1 3.1-0.8 1.7 0.2 2.1 1.9 1.9 4.7 1.1 1.5 0.4 1.6 1.1 1.6 4.1-0.8 3.4-1.4 2.2-0.2 1.3 1 0.9 1.1 0.2 1.5 1.1 0.6 2.2 0.7 0.2 0.7 1.3 2.9 0.4 2.4-0.4 1.5-1 3.1-0.4 4.4-0.7 1.9-0.1 0.9 0.1 3.7-0.2 0.7-2.2 4.7-0.9 3.3-0.1 1.4 0.5 4.4-0.3 10.7 0.3 3.6 1.7 4.7z" name="Edo"/>
	<path d="m402.1 577.5 0.8 3.4 3.2 6.7 2.3 2.9 2.8 2.6 3.1 2.3 3.2 1.5 3.3-0.4 2.5-1.9 3-0.8 3.4 1.7 2.1 3.4 0.9 4v4.1l-2.8 7.8-5.6 0.6-2.8-0.3-2.6 1.7 3.3 10.7-0.1 5.9-3.6 11.2 1.5 2.2 0.1 1.1 0.9 3.5 0.2 2.6 0.6 2.6 0.2 2.5-1.7 2.5-2 2.3-0.6 4.2 1 4.3-2.3 1.2-2.9-2.8-1.8-1.2-2.1-1.1-4.2 1.3-5.4-4.1-4 0.2-4 0.6-0.7-0.7-0.9-0.1-0.4-0.9-1.5-0.9-0.9-0.1-2.2 0.7-2.3-0.4-1.8-2.1-0.9-2.6-1.4-2.3-1-2.4 0.5-2.9-2-1.5-0.4-2-1.3-0.9-1.2 0.9-1.3 0.3-0.7-1 0.5-2.5v-1.6l1.1-1-3.4-7.7-1.7-2.3-1.2-0.7-2.8-0.5-1.2-0.6-0.8-2.1 2.3-6.3 4.6-5 0.4-5.7-2.6-1.1-2.6-0.5-4.8-2.1-4.5 0.2-1.1-0.5 0.1-2.7-0.7-2.3 2.2-4.5 2.8-1.8 0.6 2.7 0.6 0.5 1.3 1.9 2.1 1 3.6-2.9 3.2-3.8 6.9-4.9 4.2-3.8 4.7-6.3 1.6-1.4 2.6-0.9 2.6-2.1 3.1-1.6 4 0.3z" name="Enugu"/>
	<path d="m468.5 611 1.2 4.6 3.2 3.7 2.2 1.6 0.6 0.8 0.3 0.9 1.4 1.6 0.4 2.6 0.9 2.3 1.7 2.2 0.3 2.7-5.2 2.9-0.6 2.8 1.6 2.5-0.7 5.7-4.7 4.7-1.9 2.5-1.6 2.5-1.5 6.3-1.4 2.2-2.4-1.1h-2.2l-1.1 1.8-1.3 1.6-3.8 1.8-1.6 1.5-2.1 0.1-1.6-3.8-3.1-0.9-3.4 1.1-1 2.1 1.4 2.6-1.1 3.7-2.9 4.6-1.2 1.1-0.1 2 0.3 1.9-1.1 1.7-1.3 1.5-0.8 2-0.3 2.1-3-1.1-2.7-2.1-1.4-2.6-0.6-2.9-4.5-2.1-12.1-0.1-4.9-2.5 0.7-5.4-0.1-4.9 4.2-1.3 2.1 1.1 1.8 1.2 2.9 2.8 2.3-1.2-1-4.3 0.6-4.2 2-2.3 1.7-2.5-0.2-2.5-0.6-2.6-0.2-2.6-0.9-3.5-0.1-1.1-1.5-2.2 3.6-11.2 0.1-5.9-3.3-10.7 2.6-1.7 2.8 0.3 5.6-0.6 2.7 5.8 5.7 3.5 3.7-5 0.8-7 1.3-2.8 3.5-0.5h3.3l3.2-0.8 3.1-4.1 1.9-0.4h1.9l0.9-1.3 0.4-0.9 1.7 0.1 0.9 1.4 0.6 3.2 1.1 2.8z" name="Ebonyi"/>
	<path d="m505.9 284.8-0.9 5.5-2.9 5.1 1.2 2.2 2.5 1.4 1.9 1.8 1.8 2.1-0.8 2.4-0.4 2.8-2 2.7-3 1.4-4.2 4.7-1.5 6.3 2.2 6.4-3.3 11.1v6.5l-0.5 3.3 0.7 2.8-3.4 4.8v1.4l-0.2 1.5-2.4 1.8v12l3.4 5 3.9 4.1 3.2 4.5-0.4 5.2-1.7 4.8-3.1 3.6-2.1 5-2.7 4.7-3.5 3.6-3.3 0.4-2-2-1.1-1.9-1.6-1.6-3.4-4.4-7.5-2-2.7-1.1-2.2 2.1-4.8 6.8-6.6 3.6-2.1-8.1-0.9-9.9-3.3-2-2.7-2.1 0.1-2.2-0.8-1.9-2.7-2.5-5.1 0.8-3.2 5.9-2.9 1.3-2.8-1.2-2.8-0.2-2-1.7-2.7 0.2-2-1-1.2-2.3-2.3 1.1-2.7 0.6-1.5-2.9-3-1.1-2.6 3.7-1.8 1.3-2.1-0.9-2.3-0.3-2.3-0.1-7.9 0.9-2-0.5-2.1 0.6-0.5-1.3 0.9-2.6 0.2-1.2-1.4-1.8-1.1-0.7-1.7-2.6 0.7-3.1 4.5-3.3 0.5-1.6 0.3-1.7 0.8-1.4 1.2-1.1 1.9-2.1-0.5-2.7-2.5-1.3-1.2-2.1 0.7-2.3-1.8-1.5-3-0.9-1.7-2.3 1.8-1.4 2.6-0.2 2.2-1.8 0.1-3.1-1.6-13.5-4-2.8-12.3 0.2-6.2-0.7-5.9-2.6-3.8-4.9 2-2.3 2.8-1.8 2.2-2.7 2.7-2.2 2.7-1.8 2-2.6 0.2-2.9-2.5-1.7-5.9-2.2-1.8-1.9 1.1-3-0.1-6.8-4.6-3.9-2.9 0.9-1.4-0.4-0.5-6.8-0.7-1.7-2.6-1-3-0.2-2.7 1.1 0.4 3.4-1.9 1.3-3.2-0.5-3.1 0.6-6.1 2.8-2.6-0.5-1.1-2.6-2.2-1.5-5.9 1.3-9.9 7.7-4.3 4.7-1.8 2.8-2.1 2.4-2.9 0.4-1.4-2.9-2.1-2.5-2.7-2-0.5-2.9 0.3-1.7 0.5-1 0.2-3.4 0.2-1 1.2-2.9 0.4-1.9-0.1-2-1.4-4.3-0.1-2.1 0.5-7.1 0.7-2.1 1.6-1.9 1.7-0.8 3.8-1.3 1.2-1.1 0.4-1.1 0.1-2.2 0.7-1.1 0.8-0.6 2-0.7 0.9-0.6 1-1.3 1.5-3.1 1-1.3 1.6-0.6 1.8 0.2 5.5 2 1.8 0.4h1.9l5.4-1.6h2.3l8.5-3.2 1.4-0.9 1.3-1.1 1.1-1.4 0.8-1.9 1.6-7.6 0.9-2.6 1.7-2.1 5.9-3.7 1.6-1.7 1.4-2.5 3.8 1.9 2 0.5 4.4 0.1 1.8 1.3 1 2-0.3 1.6-1.3 1-2.3 2.5 0.1 2.4 6.1 1.6 2.9 1.8 4.4 4.5 2.7 0.4 2.8-1.5 2-2.2-0.1-2.5-1.4-2.1 1.4-4.6 6.3 0.1 3 1.1 2.3-1.3 0.4-3 1.4-2.7 5.2-3.1 6.1 1.2 3.2 1.4 2.9 2.1 1.6 2.2 2.4 1.1 6.7-2.8 2.9-4.4 5.7-0.5 9.8-7.3 11.7-3.8 2.9 1.4-0.1 3.2-1.5 2.8-0.4 3 1.7 2.8 2.7 1.8 5.8 2.1 2.7 2.2 2.1 2.8 5.8 2.2 6.3 1.7 8.5 9.1 1.6 11.8-1.6 6.5 1.3 10.1-1.2 3.2-3.5 0.9-1.7 2.3 4.5 3.9 6.7 0.8 3.7 4.4 1.6 0.8 3.4 0.9z" name="Kaduna"/>
	<path d="m347.3 465.6 5.1-0.2 3.1 0.4 3.7-0.6-0.7 2.9-2.1 5.4 4 7.1 0.4 5.5-1.3 12.4-1 2.6-1.5 2.4-1 3.4-0.1 3.5 0.7 0.2 2-0.9 2.8-1.8 2.3-2.2 4.3-2.5 16.8-5.7 2.8-0.3 14.6 1.2 11.8-1.1 2.4 0.4-0.4 4.8 0.2 4.4 1 4.3 2.5 3.6 2.4 2.5 1.7 3 0.3 3-0.2 9.7 1.3 10.1 1 3.3 2.7 1.4 3.2-0.4 2.1 1.5-1.7 2.9-1 2.4-0.2 2.7-1.5 6.8-3.4 5.7-11.1 6.1-1.3 3.3-0.3 3.8-2.2 0.7-2.7-1.3-3.5-2.9-3.2-1.6-2.8-2.5-4-0.3-3.1 1.6-2.6 2.1-2.6 0.9-1.6 1.4-4.7 6.3-4.2 3.8-6.9 4.9-3.2 3.8-3.6 2.9-2.1-1-1.3-1.9-0.6-0.5-0.6-2.7-2.8 1.8-2.2 4.5-5.6 5.3-2 4-1.8 8.2-2.8 2.7-2.1 0.4-2.2-0.5-1.8-0.1-0.8 0.2-0.1-2.5-1.7-4.7-0.3-3.6 0.3-10.7-0.5-4.4 0.1-1.4 0.9-3.3 2.2-4.7 0.2-0.7-0.1-3.7 0.1-0.9 0.7-1.9 0.4-4.4 1-3.1 0.4-1.5-0.4-2.4-1.3-2.9-0.2-0.7-2.2-0.7-1.1-0.6-0.2-1.5-0.9-1.1-1.3-1-2.2 0.2-3.4 1.4-4.1 0.8-1.1-1.6-0.4-1.6-1.1-1.5-1.9-4.7-2.1-1.9-1.7-0.2-3.1 0.8-2-0.1-2.3-2.7-2.8-1.9-1.2-1-0.9-1.5-1.6 0.4-1.7 1-3.8 1.6-3.8 0.1-2.1-2.9 0.9-3.7-0.6-1.9-2.7-0.9 0.3-1.6-1.4-0.9-1.7 0.3-1.4-0.7-5.2-5.7-4.2-6.5 0.6-3.3-2.5-1.1-6.7 1.2-3.8-1.1-6.5-3.2-1.4-1.2-1.1 0.1-2.8-2.5-1.2-3.6 0.6-3.6 2.4-3 1.9-1.1 0.1-1.9-1.2-0.9-1.6-0.2-3 0.3-3 0.7-2.3 1.4-1.6-0.6-0.1-3.6 1.7-2.3-0.7-5.1-5.5-3.4-3.4-3.1-0.8-1.6-1.5-1.2-1.2-1.5-2.5-4.8 0.7-2.8 9.5-11.9 3.7-3.4 3.3 1.3 4.2 4.2 8.3 3.1 8.2 1.9 11.5 0.6 9.2 2.1 2.8-0.6 1.7-2 0.8-2.5 1.3-8.7 3.4-11.6 3.5-4.6 3.7-0.7 1.4 0.1 0.6 0.5 3.1 2.1 1.7 0.3 1.3 0.7 1.1 1.1 2 3.5 0.2 2.2 1.3 2.7 0.7 0.7 0.5 1.5 0.2 2.5 1.1 4 1.9 3.9 0.6 0.3 8.2 6.3 1 1.1 3.3 5.2 3.1 3.4 1 0.5 0.1 0.5 1.2 1.1 0.3 0.5 1.4-1.5 0.5-2.2 1-2.1 1-0.8 1.2 0.7 0.4-1.4-0.2-1.9 1.3-1.3 1.7-0.6 2.5-2.4z" name="Kogi"/>
	<path d="m657.2 373.8 1.8 4 0.5 4.5-0.6 5.4 0.9 6.3 0.7 2.5 1.4 2.3 2.4 8v2.4l-0.6 2.7 1.1 5.2 0.1 3.2-2.9 5.4-13.2 6.6-19.2 4.7-4 4.8-1.9 3-4.4 5.3-2.3 2.1-5.9 3.2-5.5 4-4.8 4.9-5.4 4.1-6 1.7-6.3 0.5-4.5-0.3-3.1-4.4-4.5-2.9-9.7-4.1-5.2-0.2-5.3 1.6-7.6 1.4-7.8-0.1-5.1-1.4-6.9-3.7-1.9-3.4 0.5-4.1-0.6-3.5-2-2.8-1.6-4.1 1.4-3.5 2.1-2.6 2-3 3.1-1 1.9-1.9 3.5-4.7 1.2-3 0.5-2.4-1.5-1.9-2.3-1.5-2.6 0.7-1.3 0.6-1.4 0.2-5.7 0.1-5.5-1.1-3.9-4.1-1.3-5.7-4.1-3-4.8-2.4 1.7-4.8 0.4-5.2-3.2-4.5-3.9-4.1-3.4-5v-12l2.4-1.8 0.2-1.5v-1.4l3.4-4.8-0.7-2.8 0.5-3.3v-6.5l3.3-11.1-2.2-6.4 1.5-6.3 4.2-4.7 3-1.4 2-2.7 0.4-2.8 0.8-2.4 4.8-0.9 4.9 1.3 2.9 3.7 1.7 4.6 0.4 4.2-0.1 13.5 3.1 2.1 9.6-1.7 5.3 1.9 1.8 5.8 0.4 6.9-0.7 2.5-1.4 2.3-1.1 2.4-0.4 2.6 2 2.1 3 0.9 3.7 4.4 2.9 5 5.1 1.7 11.8 2.2 13.1-0.7 3.3-0.7 2.9-1.2 2.5-5.2 2.1-1.8 5.5-2.1 0.8-2.8-1.1-3-3.3-4.6 1.1-1.9 1.2-0.8 2.6-0.6 40.8 19 13.9 8.7z" name="Plateau"/>
	<path d="m499.1 398.4 4.8 2.4 4.1 3 1.3 5.7 3.9 4.1 5.5 1.1 5.7-0.1 1.4-0.2 1.3-0.6 2.6-0.7 2.3 1.5 1.5 1.9-0.5 2.4-1.2 3-3.5 4.7-1.9 1.9-3.1 1-2 3-2.1 2.6-1.4 3.5 1.6 4.1 2 2.8 0.6 3.5-0.5 4.1 1.9 3.4 6.9 3.7 5.1 1.4 7.8 0.1 7.6-1.4 5.3-1.6 5.2 0.2 9.7 4.1 4.5 2.9 3.1 4.4-2.3 3.6-3.4 2.2-2.3 0.1-2.4-0.3-2.5-0.8-2.3-0.4-2-1-4.1-1.4-2 0.9-1.4 1.8-0.9 2.2-0.3 2.6 4.4 5.6 0.3 4.3-0.2 1.5 0.6 1.5 0.3 2.3-1.7 1.5-12.1 8.1-2.8 2.4-15.9-11.8v0.4l-3 0.3-9.1-0.3-6.1-1.4-16.8-5.6-10.9 1.3-4.7 3.9-1.3 5.9 1.9 6.1 3.9 8.6 0.6 3-1.1 1.3-1.6-0.4-1-0.5-2.1-1.6-3.8-2.2-1.9-2-2.4-0.7-2.7-0.3-2.6-0.8-4.5-2.3-2.3-0.9-7-1.2-1.4-0.5-4.1-2.5-2.9-0.8-5.9-0.7-2.8-0.6-4-1.4-5.4-0.6-4.2-1-2.4-0.4-11.8 1.1-14.6-1.2-2.8 0.3-16.8 5.7-4.3 2.5-2.3 2.2-2.8 1.8-2 0.9-0.7-0.2 0.1-3.5 1-3.4 1.5-2.4 1-2.6 1.3-12.4-0.4-5.5-4-7.1 2.1-5.4 0.7-2.9 12-1.9 11.7-3.1 10.7-5.4 3.7-4 2.9-4.8 3.6-10 3.9-17-0.3-8.3 0.2-5.2 1.9-9.1 1.5-2.7 1-0.3 1-0.7 0.3-1.6-0.2-1.7 2.3-1.1 1.2 2.3 2 1 2.7-0.2 2 1.7 2.8 0.2 2.8 1.2 2.9-1.3 3.2-5.9 5.1-0.8 2.7 2.5 0.8 1.9-0.1 2.2 2.7 2.1 3.3 2 0.9 9.9 2.1 8.1 6.6-3.6 4.8-6.8 2.2-2.1 2.7 1.1 7.5 2 3.4 4.4 1.6 1.6 1.1 1.9 2 2 3.3-0.4 3.5-3.6 2.7-4.7 2.1-5z" name="Nassarawa"/>
	<path d="m661.3 118.8-11 7.4-4.4-1.1-2.6-1.7-6.2 1.1-2.6 1-1.9 1.8-1.2 3.7-0.8 3.8-6 16.9-0.5 2.8 0.7 3.5-1.3 2.9-25.4 9.7-2.7 1.8-2.8 1.3-7 0.6-4.5 4-1.7 6.3 3.5 2.4 5.1-1.4 3-0.4 2.8 0.7 1.3 2.8 1.3 6.1 0.1 2.9-2.8 5.2-0.3 2.8 1.6 2.3h2.7l1.5-0.5 3.4 6.1 8 10.7 6.1 2.4 13.2 2.5 7.1 0.3 6 2-0.4 2.8-2 2.3-2.8 1.8-9.2 3.6-1.8 5.7 1 3.1-2.3 1.4-3.2-1.2-2.9-1.5-13.1 1-4.8-2-1.9-4.7 0.7-5.4v-5.5l-1.9-5.1-3.6-3.4-4.8 1.2-10.7 0.8-4.2-1.5-3.3-4.2-5.2 0.8-5.3-0.3-5.2-2.2-4.9-1.4-5.1-0.1 0.2-1.1-0.1-2.3 0.1-1.1 0.8-2.6 1.3-2.3 7.4-6.7 0.7-1.9-1.8-1.2-1.1-0.3-1.9-1.2-2.3-2.5-1.2-1.8-1.9-4.8-0.9-0.7-2.3-0.3-3.6 0.3-1.3-1.2 1.1-5.2 3-4.4 0.8-2 0.3-2.1 1-2.6 0.2-2.9-1.2-5.1-0.9-2.5-3.9-0.4-2.9 2h-5.2l-0.1-2.2-0.6-2-0.6-0.3-3.5 0.5-1.9 0.7-1.7-0.9-1.1-1.9 0.7-1.3 0.8-1.2 0.5-1.4-0.1-7.9-3.5-4.3-5.2-0.6-4.7-1.6-0.7-2.6 0.1-2.9-1-2.4-2.1-1.4-2.2-1.2-2-1.5-0.7-3 0.1-3.3-0.4-2.2-2-0.9-5.4-1.4-4.9-0.7-4.9 0.9-4.2 2.2-2.5 3.8-1.4 4.2-1 1.6-1.5-0.9-0.3-1.2v-1.2l-0.6-1.5-4.2-7.5-1-2.6-1.8-1.9-6.6-0.2-4.4-2.7-0.1-5.5 0.7-5.7 1.1-2.2 8.9-1.4 6-0.1 5.4 0.7 12.8-0.6 1.6 1.5 1.5 4.4 2.2 3.9 2 1.2 2 0.8 1.9-0.1 2.7-1.5 1 1.3 1.2 1.1 3.3 0.3 4.5-1 4-2.2 3.7-2.9 0.9-1.5 0.6-1.6 0.8-1.2 1-0.9 1.4-0.7 0.5-2.1 24.3 2.9h3.1l4.4-1.3 1.5-0.1 17.7 2.1 1.7-0.1 1.5-0.9 1.6-1.5 2.2 0.6 7.9 2.7 7.3-3.2 1.3-2.1 0.9-2.3 1.5-1.1 5.8-2.5 4-1 7.9-3.2 3.7-1 3.5 1.1 2.1 3.3 2.2 8.5 0.8 2.2 3.6 0.5 5.5-1.6 2.7 0.3 3 1.4 3.1 0.7 2.8-0.1 2.3 1.7 2.6 5.5 1.5 12.1z" name="Jigawa"/>
	<path d="m546.1 217.5-6.3 2.6-1.5 0.3-2.7-1.5-5.6 2.6-8.5 8.9-3.2 4.9-2.3 2.4-3 1.4-4.9 0.3-2.6 5.3-0.5 6.4 0.3 7.1 2.3 6.5 3.8 4.5 0.6 5.8-2.3 5.6-3.8 4.2-1.8 0.4-3.4-0.9-1.6-0.8-3.7-4.4-6.7-0.8-4.5-3.9 1.7-2.3 3.5-0.9 1.2-3.2-1.3-10.1 1.6-6.5-1.6-11.8-8.5-9.1-6.3-1.7-5.8-2.2-2.1-2.8-2.7-2.2-5.8-2.1-2.7-1.8-1.7-2.8 0.4-3 1.5-2.8 0.1-3.2-2.9-1.4-11.7 3.8-9.8 7.3-5.7 0.5-5.7-4.9-1.3-4.3 0.6-4.1 1.3-4.1 2.6-3.1 3.9-1 4.6-2.4 3.8-0.9-0.3-3.3-2.1-5.3-0.8-1.1-0.3-1.3 0.5-1.6 0.1-1.6-0.4-2.7-1.8-5.5 0.5-17.8-0.8-8.3 1-3.8 6.4-4.5 14.6-5.5 3-2.9 2.8-8.2 2-3.6 3.8-1.2h4.1l4.2 7.5 0.6 1.5v1.2l0.3 1.2 1.5 0.9 1-1.6 1.4-4.2 2.5-3.8 4.2-2.2 4.9-0.9 4.9 0.7 5.4 1.4 2 0.9 0.4 2.2-0.1 3.3 0.7 3 2 1.5 2.2 1.2 2.1 1.4 1 2.4-0.1 2.9 0.7 2.6 4.7 1.6 5.2 0.6 3.5 4.3 0.1 7.9-0.5 1.4-0.8 1.2-0.7 1.3 1.1 1.9 1.7 0.9 1.9-0.7 3.5-0.5 0.6 0.3 0.6 2 0.1 2.2h5.2l2.9-2 3.9 0.4 0.9 2.5 1.2 5.1-0.2 2.9-1 2.6-0.3 2.1-0.8 2-3 4.4-1.1 5.2 1.3 1.2 3.6-0.3 2.3 0.3 0.9 0.7 1.9 4.8 1.2 1.8 2.3 2.5 1.9 1.2 1.1 0.3 1.8 1.2-0.7 1.9-7.4 6.7-1.3 2.3-0.8 2.6-0.1 1.1 0.1 2.3z" name="Kano"/>
	<path d="m525.5 89.7-0.5 2.1-1.4 0.7-1 0.9-0.8 1.2-0.6 1.6-0.9 1.5-3.7 2.9-4 2.2-4.5 1-3.3-0.3-1.2-1.1-1-1.3-2.7 1.5-1.9 0.1-2-0.8-2-1.2-2.2-3.9-1.5-4.4-1.6-1.5-12.8 0.6-5.4-0.7-6 0.1-8.9 1.4-1.1 2.2-0.7 5.7 0.1 5.5 4.4 2.7 6.6 0.2 1.8 1.9 1 2.6h-4.1l-3.8 1.2-2 3.6-2.8 8.2-3 2.9-14.6 5.5-6.4 4.5-1 3.8 0.8 8.3-0.5 17.8 1.8 5.5 0.4 2.7-0.1 1.6-0.5 1.6 0.3 1.3 0.8 1.1 2.1 5.3 0.3 3.3-3.8 0.9-4.6 2.4-3.9 1-2.6 3.1-1.3 4.1-0.6 4.1 1.3 4.3 5.7 4.9-2.9 4.4-6.7 2.8-2.4-1.1-1.6-2.2-2.9-2.1-3.2-1.4-6.1-1.2-5.2 3.1-1.4 2.7-0.4 3-2.3 1.3-3-1.1-6.3-0.1-1.4 4.6 1.4 2.1 0.1 2.5-2 2.2-2.8 1.5-2.7-0.4-4.4-4.5-2.9-1.8-6.1-1.6-0.1-2.4 2.3-2.5 1.3-1 0.3-1.6-1-2-1.8-1.3-4.4-0.1-2-0.5-3.8-1.9 1.3-3.8 0.8-3.9-0.3-3 0.5-2.9-2.8-5.2 3.1-15.2 4.8-2.3h6.2l1.7 1.2 1.4-0.7 3.5-2.7 2-2 0.4-2.8 1.5-1.4 2.6 0.7 2.5-1-0.9-5-4.6-3.8-2.8-1.3-1.7-2.1 1.4-2.6 1.8-5 0.5-2.2-0.5-2.6-0.7-2.4-0.5-4.4-1.2-4.3-2.3-4.5 0.4-5.1-1.8-4.3-2.6-35.2 1.4-8.9 2.2-1 4-3.5 5-6 1.9-0.3 8.6 1.6h3l2.6-0.9 30.3-18.3 2.8-1.3 2.9-0.3 21.1 3 2.2 0.9 1 0.8 2 1.8 2.2 1.5 2.9 2.2 1.2 0.6 2.4 0.6 1.2 0.6 1.1 1 2.1 2.5 8.3 7.6 1.8 0.7 2.2-1 3-0.2 2.3 0.5 2 0.9 3.6 2.8 1.6 1.8 2.4 4 1.5 1.7 3 1.8 21.9 6.5z" name="Katsina"/>
	<path d="m340.6 61.4-4.2 3.3-6.5 3.8h-8.1l-8.1-2-1.4-1.3-1.3-1.6-3-0.9-1.8-0.3h-3.9l-1.2 1.1-0.4 2.1-0.1 2.3-1 3.5-2 0.6-3.3-1.3-6 0.8-5.3 2.9-0.9 2.4 1.4 14.6-2.4 4.7-3 1.3-3.1 0.9-18.8 1.8-4.2 3.3-3.1 5.1-4.3 5.5-4 2.7-0.5 5.6 1.7 6.3 0.3 6.6-4.1 4.5-25.4 1-12.3-2-3 10.2-0.7 39.9-1.6 1-1.8 0.2-0.9-1.3-1.3-0.8-1.9 0.6-1.3-0.7-1.8-0.4-1.7 0.4-15.8 7.2-2.9 3.6-3.7 2.3-3.7-1.3-2.7-3 0.7-8.1 3.7-8 2.8-13.3-0.6-32.7 3-5.3 6-1.5 5.7 1.8 3.7-1.9 0.3-6.4-2.5-13.7 0.4-3.3 0.8-3.1 0.7-6.2-1.9-5.3-2.8-4.8 0.5-3.5 0.9-3.2 0.5-1.2 0.4-1.3v-1.6l0.2-1.6 1.3-2.5 0.3-2.7-1.5-1.8-2.2 0.7-1.5 2.1-1.3 2.2-2.6 1.6-3.1-0.3-3-1.4-2.8-2-2.9-1-3-0.8-5.6-2.1-5.2-3.1-2.5-2.4-2.6-2.1-3 0.7-2.9 1.4-5.4-0.9-6.3 0.2-0.7 0.1 0.3-1.9 0.1-20.5 5.4-0.2 2.5-0.5 2.4-1.1 13-12.6 3.9-2.8 4.5-1.8 26.5-6.5 2.7-0.3 1.9 0.9 1.8 1.8 1.9 0.8 4.9 0.3 8.4-1.5 11.9 0.5 2.9-0.5 0.9-0.4 2.6-1.9 1.1-1.4 1.4-3.1 1-1.3 2.3-1.2 12.3-2.1 2.7 0.6 47.1 18.8 1.8 1.1 0.9-0.2 4.8-2.7 1.6-0.4 6 1.4 5.5 3.2 11.7 11.1 13.6 15z" name="Sokoto"/>
	<path d="m366.3 76.8-1.4 8.9 2.6 35.2 1.8 4.3-0.4 5.1 2.3 4.5 1.2 4.3 0.5 4.4 0.7 2.4 0.5 2.6-0.5 2.2-1.8 5-1.4 2.6 1.7 2.1 2.8 1.3 4.6 3.8 0.9 5-2.5 1-2.6-0.7-1.5 1.4-0.4 2.8-2 2-3.5 2.7-1.4 0.7-1.7-1.2h-6.2l-4.8 2.3-3.1 15.2 2.8 5.2-0.5 2.9 0.3 3-0.8 3.9-1.3 3.8-1.4 2.5-1.6 1.7-5.9 3.7-1.7 2.1-0.9 2.6-1.6 7.6-0.8 1.9-1.1 1.4-1.3 1.1-1.4 0.9-8.5 3.2h-2.3l-5.4 1.6h-1.9l-1.8-0.4-5.5-2-1.8-0.2-1.6 0.6-1 1.3-1.5 3.1-1 1.3-0.9 0.6-2 0.7-0.8 0.6-0.7 1.1-0.1 2.2-0.4 1.1-1.2 1.1-3.8 1.3-1.3-5.6-6.4-10.8-3.5-4.7-0.7-12.9-6.4-10.2-3.3-1.3-1.6-2.6 2.1-6.4 0.4-5.8-3.9-3.8-3.1-1.1-6.2-1.1-1.4 0.4-1.3 0.7-12.6 0.9-5-1.1-7.2-3.1-1.2-2.5-2-1.6-4.7 0.7-2-0.1-1.8-0.9-1.8 0.1-1.4 1.5-0.7 2-1.5 0.9-1.9 0.1-4.4 1.1-1.7-0.4-1.4-1.1-3.4-1.3-3.4 0.6 0.7-39.9 3-10.2 12.3 2 25.4-1 4.1-4.5-0.3-6.6-1.7-6.3 0.5-5.6 4-2.7 4.3-5.5 3.1-5.1 4.2-3.3 18.8-1.8 3.1-0.9 3-1.3 2.4-4.7-1.4-14.6 0.9-2.4 5.3-2.9 6-0.8 3.3 1.3 2-0.6 1-3.5 0.1-2.3 0.4-2.1 1.2-1.1h3.9l1.8 0.3 3 0.9 1.3 1.6 1.4 1.3 8.1 2h8.1l6.5-3.8 4.2-3.3 2 3.8 4.9 5.7 3.1 2.8 2.7 2.1 2.5 0.9 2.8 0.3h6.2z" name="Zamfara"/>
	<path d="m809.1 69.6-2 16.5 1.5 5.5 3.7 4.1 4.5 3.3 0.7 5.3-2.1 5.2-3.7 5.1-9.1 8.7 1.7 12.8-3.9 28.6 2 8.5-0.4 3.8-5 9.9-0.5 3.4 2.2 0.7 2.8-0.4 3.4 1.1 2.4 2.8 1.5 3 0.4 3.1-8.4 10.5-3.4 6.2-2.3 2.4-1.8 2.7-0.4 7.2 0.4 7.2-2.5 5.8-5.2 3.9-19.6 6.9-4.7 5.2-1.2 6.8 0.6 7.1-0.9 3-2 2.5-2.5 2.1-3.3 0.9-3.1 0.3-5.8-0.6-0.8-2.5-0.5-6.1 1-19.4-0.5-2.9-1.8-2.3-8.7-8.8-4-5.5-4.6-4.9-5.3-4.2-11.4-5.6-11.6 3.1-4-0.7-2.2-2.8 2.9-13.2-0.5-7.2-10-24.8-2.5-13.6-0.1-5.9-0.5-3.7-1.7-3.3-1.7-2.7-0.4-3-0.1-3.4-1.3-6.7-1.1-3.2-4.8-4.7-5.6-3.9-1.8-5.5-1.5-12.1-2.6-5.5-2.3-1.7-2.8 0.1-3.1-0.7-3-1.4-2.7-0.3-5.5 1.6-3.6-0.5-0.8-2.2-2.2-8.5-2.1-3.3-3.5-1.1-3.7 1-7.9 3.2-4 1-5.8 2.5-1.5 1.1-0.9 2.3-1.3 2.1-7.3 3.2-7.9-2.7-2.2-0.6 14.2-16.9 2.8-2.7 1.6-1.1 1.7-0.3 1-1.5 0.3-2.1 0.4-0.9 1.4-1.4 15.8-8.9 3.5-1.5 42.7-9.2 8-0.7 15.1 1.8 40.5-0.2 25.2 6.4 9.2 3.8 11.5 7.1 3.9 3 1.6 0.9 4.9 1.2 3.9-0.5 1.8-1.2 1.4-0.3 4.2 1.5 0.9 0.5 0.5 1.4 0.7 0.1 1.2-1 0.8-0.1 0.8 0.4 1.2 1.2 0.8-0.5 1.4 0.4z" name="Yobe"/>
	<path d="m196.6 188.8 3.4-0.6 3.4 1.3 1.4 1.1 1.7 0.4 4.4-1.1 1.9-0.1 1.5-0.9 0.7-2 1.4-1.5 1.8-0.1 1.8 0.9 2 0.1 4.7-0.7 2 1.6 1.2 2.5 7.2 3.1 5 1.1 12.6-0.9 1.3-0.7 1.4-0.4 6.2 1.1 3.1 1.1 3.9 3.8-0.4 5.8-2.1 6.4 1.6 2.6 3.3 1.3 6.4 10.2 0.7 12.9-2.6-1.6-2.9 0.1-1.2 1-2.1 2.4-0.9 1.3-2.1 1.7-2.9 0.3-2.9 0.8-14.4 6.1-5.5 1h-8.3l-2.2-0.8-1.1-3-0.1-3.3 0.5-6.5-1.3-2.8-2.7-1.7-3-5.4-1.1-6.4-4.9-3-6.1-0.1-24.6 5-11.4 5.1-1.3 5.4 5.2 4 6 2.5 6.4 1h1.4l1.1 0.7 0.7 1.5 1.1 0.6 2.3 0.7 1 2.5 0.8 3.4 0.2 3.4-4 5.1 3.4 4.3 1.8 5.6-2.2 1.7-5.9 1.7-5.6 2.7-5.8-0.8-2.6 1-1.4 5.6 0.4 6.4-0.4 2.9 0.5 2.8 3.9 5.2 2.6 5.7-2.1 5.6-2.4 1.7-2.8 1-9.7 2-2.9 1-0.9 3v3.4l-1.1 2.2-5.6-0.3-2-1.8 1.2-6.2 0.5-6.2-1.7-1.9-2.2-1.7-1.3-2.9-0.3-3.2 0.5-6.3 3.2-5.4 9.6-5.5 0.2-1.5 2.1-2.2 0.6-1.1 0.2-1.5-0.1-3.2 2.8-15.1-0.1-2.1-5.4-1.6-10.1-6.7-8.4-2.2-8.6 1.2-22.8 0.6-4.4-0.5-9.3-4.3-7.4-4.6-7.6-0.9-0.6 0.6-1.6 0.1-2-2-14.9-21.1-1.2-2.3-0.2-2 2.2-5.8 1-3.9 5.8-9.9 1.8-1.9 4.3-2.6 1-1 0.6-1.8-0.4-1.7-1-1.6-2-2.1-0.6-0.5-0.8-1.7-0.5-4.8 0.4-1.4 0.9-1.3 1.5-1.4 1.4-2.9-0.4-2.9-2.1-6.2 0.1-3.7 2.2-11.2-0.8-21.2 0.3-0.9 18.2-13.8 5.4-5.1 13.3-21 2.6-18.4 0.7-0.1 6.3-0.2 5.4 0.9 2.9-1.4 3-0.7 2.6 2.1 2.5 2.4 5.2 3.1 5.6 2.1 3 0.8 2.9 1 2.8 2 3 1.4 3.1 0.3 2.6-1.6 1.3-2.2 1.5-2.1 2.2-0.7 1.5 1.8-0.3 2.7-1.3 2.5-0.2 1.6v1.6l-0.4 1.3-0.5 1.2-0.9 3.2-0.5 3.5 2.8 4.8 1.9 5.3-0.7 6.2-0.8 3.1-0.4 3.3 2.5 13.7-0.3 6.4-3.7 1.9-5.7-1.8-6 1.5-3 5.3 0.6 32.7-2.8 13.3-3.7 8-0.7 8.1 2.7 3 3.7 1.3 3.7-2.3 2.9-3.6 15.8-7.2 1.7-0.4 1.8 0.4 1.3 0.7 1.9-0.6 1.3 0.8 0.9 1.3 1.8-0.2z" name="Kebbi"/>
	<path d="m768.9 545.7-1.1-4.3-2.1-4.5-1-5.5v-5.7l-4-9.6-8.1-7.7-2-2.5-3-1.3-2.6 1.2-1.7 2.5-1.8 2.3-2.2 1.9-2.7-0.3-2.3-2.3-3.3-6-3.6-9 0.7-2.6 4.6-5.4 5.4-4.9 21.5-25.9 5.6-4.6 0.8-2.7-0.4-3.1 0.6-5.8 8.3-17.4-0.5-5.9-3.4-4.3-5.3-2.5-2.9-4.9v-3l0.4-2.9-0.8-2.6-1.6-2.5-2.8-6.1-4.8-4.3-2.8-0.9-2.8-0.5-2-1.9-7.7-14.5 7.6-1.2 7.1-3.2 15.4-9.3 3.1-2.5 1.3-3.5-0.5-11.2 0.9-7.3 13.4 0.7 10.6-7.5 8.6-11.2 4.8-4.1 6-1.3 6.7-0.7 6-2.7 2.3-2.6 1.5-3 2.1-1.6 3.1-0.2 4.9-4.4 4.5-5.3 6.8-1.6 7.2 1 5.6 2.5 4.6 4.1 4.9 3.2 5.7 1.2 4.2-2.3 2.9-11.3 4.6-11.4 1.1-5.9v-5.8l0.7-4.8 2.8-0.4 1.2 0.2 0.9 0.8 2.7 1 2.7 0.3 12.1-2.6 4.9-0.3-0.5 1-14.8 21.3-2.3 4.9-3.1 10.6-2.8 15.9-1.9 5.3v1.1l0.5 1.7 0.2 1-0.2 1.1-1.3 2.9-1 1.2-1.8 1.4-1.9 1.2-1.6 0.6-6.5 0.8-2.8 1-1.5 2.9 0.1 1.7 1 2.8 0.3 1.6-0.4 2-1.9 3.1-0.6 1.7 0.1 1.9 0.8 1.4 2.5 2.5 0.9 1.9-0.2 1.3-0.8 1.4-0.8 2.1-1.1 5.7-0.4 5.4-2.3 6-5.5 2.2-6.5 1-5.8 2.5-1.1 0.9-2.4 3.1-1.6 1.4-4.9 2.4-0.5 0.4-0.6 1.5 0.4 0.3 2.3 0.3 0.9 1.8 0.6 2.5-0.1 3.3-0.3 1.6-0.5 1.4-3.8 7-1.7 4-0.1 3.4 0.6 3.1-1.9 15.8-0.9 3.7-1.8 2.4-1.1 0.5-3.3-0.2-0.9 0.4-0.6 1-0.8 2.4-1.2 2.7-1.5 1.6-8.5 4.6-1.3 0.3-1.2-0.3-2.7-1.2-1-0.3-1.6 0.2-2 1.2-1.3 0.6-1.1 0.1-1.2-0.2-2.3-0.8 0.7 1.3 1.9 4.7 0.3 1.2v2.4l-0.7 0.7-2.5 1.8-1.8 2.8-1 0.7-1.8 0.3-3.2-0.6-1.8 0.8-1.9 2.7-0.6 3.7 0.2 3.8 1.3 6.8-0.1 1.7-0.6 1.8-3.4 4.8-0.5 2.1v3.2l0.5 3.3 0.5 2 0.3 1.4-0.5 1.2-3.1 3.3-8.3 11.6-3 5.4-0.6 1.8-0.2 1.8 0.1 1.8 1.2 4.9-0.3 1.7-1.1 1-1.3 0.9-2.2 3.3z" name="Adamawa"/>
	<path d="m413.1 389.4 0.2 1.7-0.3 1.6-1 0.7-1 0.3-1.5 2.7-1.9 9.1-0.2 5.2 0.3 8.3-3.9 17-3.6 10-2.9 4.8-3.7 4-10.7 5.4-11.7 3.1-12 1.9-3.7 0.6-3.1-0.4-5.1 0.2-3.8-0.4-2-3.6-0.5-1.5-0.8-60.1 0.4-2.4 2-0.9 15.4-0.6 5 1.5 7.7 7.6 4 2.2 0.5-0.1 11.7-16.7 7.9-0.9 2.3 0.1 2.3 0.3 2.1 0.9 1.8-1.3 2.6-3.7 3 1.1 1.5 2.9z" name="Federal Capital Territory"/>
	<circle cx="395.2" cy="167.5" r="0"/>
	<circle cx="507.7" cy="544.9" r="0"/>
	<circle cx="725.7" cy="410.7" r="0"/>
</svg>
